<svg id="svg" version="1.1" fill="current" stroke="current" xmlns="http://www.w3.org/2000/svg" xmlns:xlink="http://www.w3.org/1999/xlink" width="25" fill="current" stroke="current" height="25" viewBox="0, 0, 400,391.11111111111114"><g id="svgg"><path stroke="current" id="path0" fill="current" d="M66.466 0.870 C 66.238 2.451,63.337 3.151,54.768 3.693 C 47.924 4.125,46.985 4.268,45.944 5.038 C 44.530 6.083,41.141 7.031,38.748 7.050 C 37.755 7.058,35.962 7.503,34.638 8.069 C 33.346 8.623,29.875 9.924,26.924 10.962 C 23.973 11.999,20.535 13.480,19.284 14.252 C 18.034 15.024,16.832 15.656,16.614 15.656 C 16.172 15.656,11.381 18.658,9.627 20.035 C 9.003 20.525,8.136 21.105,7.701 21.324 C 7.265 21.543,6.632 22.190,6.292 22.761 C 5.604 23.920,4.162 25.796,2.855 27.232 C 2.374 27.761,1.552 28.180,0.996 28.180 L 0.000 28.180 0.000 176.125 L 0.000 324.070 1.012 324.070 C 2.302 324.070,6.000 327.764,6.634 329.685 C 6.947 330.634,7.452 331.184,8.334 331.536 C 9.024 331.812,10.282 332.579,11.130 333.240 C 12.566 334.361,13.704 334.989,21.570 339.007 C 23.209 339.844,25.675 340.860,27.050 341.266 C 28.425 341.671,31.575 342.654,34.051 343.450 C 39.895 345.329,42.349 345.942,45.125 346.216 C 46.889 346.391,47.638 346.679,48.494 347.516 C 49.564 348.563,49.782 348.605,56.597 349.076 C 67.024 349.798,70.919 350.255,71.853 350.866 C 73.137 351.707,94.147 352.409,109.393 352.119 C 121.636 351.887,123.236 351.755,129.065 350.501 C 130.628 350.165,135.471 349.649,139.828 349.354 C 146.748 348.885,147.972 348.702,149.508 347.901 C 151.504 346.860,153.541 346.739,155.026 347.572 C 155.584 347.885,157.081 348.685,158.353 349.350 C 160.887 350.675,164.633 353.059,165.558 353.934 C 166.470 354.798,167.564 355.266,169.369 355.565 C 170.281 355.716,171.601 356.223,172.304 356.691 C 173.923 357.769,174.955 358.223,178.743 359.523 C 180.424 360.100,183.161 361.254,184.825 362.087 C 186.488 362.919,188.200 363.601,188.628 363.601 C 189.055 363.601,190.531 364.219,191.906 364.975 C 194.058 366.158,195.059 366.428,199.063 366.906 C 204.012 367.496,206.011 368.021,207.185 369.038 C 207.836 369.602,210.545 369.667,233.440 369.667 L 258.969 369.667 259.919 368.563 C 260.747 367.601,261.325 367.394,264.388 366.966 C 267.534 366.527,277.042 363.627,278.107 362.782 C 278.336 362.600,279.631 362.193,280.985 361.877 C 282.339 361.561,284.089 360.885,284.874 360.375 C 285.659 359.864,287.358 359.066,288.650 358.601 C 290.685 357.868,293.862 356.295,299.983 352.988 C 300.835 352.528,302.396 351.557,303.452 350.831 C 304.508 350.105,305.694 349.511,306.087 349.511 C 306.481 349.511,306.909 349.339,307.039 349.129 C 307.365 348.601,311.342 345.988,311.819 345.988 C 312.033 345.988,312.543 345.613,312.953 345.155 C 313.363 344.696,314.315 343.926,315.068 343.443 C 315.822 342.961,317.129 341.910,317.972 341.110 C 318.816 340.309,320.681 338.716,322.117 337.570 C 323.553 336.425,325.439 334.680,326.307 333.693 C 327.176 332.706,328.504 331.641,329.259 331.326 C 330.185 330.939,330.718 330.410,330.896 329.701 C 331.041 329.123,332.427 327.378,333.975 325.822 C 335.524 324.266,337.583 321.998,338.552 320.782 C 339.521 319.566,341.076 317.651,342.008 316.527 C 342.940 315.402,344.376 313.337,345.200 311.937 C 346.024 310.538,347.149 308.971,347.701 308.455 C 348.254 307.939,348.910 306.882,349.160 306.107 C 349.410 305.331,350.120 303.939,350.737 303.014 C 351.354 302.088,351.859 301.207,351.859 301.057 C 351.860 300.906,352.479 300.087,353.235 299.237 C 353.992 298.387,354.797 296.978,355.025 296.106 C 355.253 295.234,355.830 293.904,356.306 293.151 C 357.206 291.727,358.280 289.319,358.725 287.729 C 358.867 287.222,359.403 286.189,359.916 285.432 C 360.835 284.078,361.637 281.822,361.642 280.581 C 361.643 280.233,361.975 279.528,362.379 279.014 C 362.784 278.500,363.433 276.935,363.822 275.536 C 364.211 274.138,364.945 272.159,365.454 271.139 C 366.123 269.794,366.440 268.338,366.601 265.855 C 366.772 263.218,367.049 262.020,367.800 260.665 C 369.824 257.013,370.297 211.112,368.354 206.856 C 367.865 205.783,367.193 203.141,366.861 200.985 C 366.530 198.829,365.937 196.096,365.544 194.912 C 363.534 188.852,361.628 183.867,360.375 181.397 C 359.608 179.883,358.776 177.857,358.525 176.896 C 358.275 175.934,357.464 174.149,356.723 172.930 C 355.982 171.711,355.265 170.126,355.130 169.408 C 354.995 168.689,354.533 167.713,354.102 167.237 C 352.048 164.971,352.084 165.835,351.991 116.523 L 351.905 70.815 350.909 68.774 C 349.894 66.693,347.500 62.313,346.559 60.814 C 346.272 60.358,345.102 59.445,343.958 58.784 C 342.814 58.124,341.167 56.912,340.297 56.091 C 339.427 55.270,338.106 54.303,337.362 53.942 C 335.355 52.968,332.330 51.663,332.079 51.663 C 331.959 51.663,330.944 51.086,329.825 50.381 C 328.705 49.675,326.732 48.773,325.440 48.376 C 324.149 47.980,322.299 47.257,321.331 46.770 C 320.309 46.257,318.399 45.769,316.780 45.609 C 314.180 45.350,313.569 45.110,311.106 43.377 C 310.423 42.897,308.566 42.601,304.110 42.260 C 300.150 41.958,297.295 41.533,295.890 41.036 C 292.194 39.729,291.113 39.562,283.519 39.133 C 279.452 38.903,274.012 38.550,271.429 38.348 C 262.880 37.681,242.110 37.430,235.616 37.916 C 232.280 38.165,226.996 38.551,223.875 38.773 C 217.951 39.194,214.919 39.531,209.460 40.371 C 204.198 41.181,202.092 39.566,201.706 34.425 C 201.307 29.107,197.930 23.706,192.418 19.569 C 190.309 17.987,189.982 17.685,189.285 16.675 C 188.939 16.174,188.047 15.834,186.544 15.630 C 185.104 15.435,183.642 14.895,182.408 14.103 C 179.513 12.245,177.026 11.142,173.656 10.220 C 171.975 9.759,169.741 8.948,168.692 8.417 C 167.414 7.769,165.591 7.315,163.169 7.040 C 160.942 6.788,158.640 6.241,157.174 5.615 C 154.746 4.578,149.324 3.595,145.774 3.549 C 143.987 3.525,137.649 2.337,136.062 1.728 C 135.709 1.592,135.421 1.148,135.421 0.741 C 135.421 0.020,134.511 0.000,101.006 0.000 L 66.591 0.000 66.466 0.870 M131.898 16.840 C 133.513 17.041,136.209 17.325,137.890 17.469 C 140.117 17.661,141.229 17.955,141.988 18.553 C 142.872 19.250,143.947 19.442,149.108 19.824 C 154.973 20.259,156.412 20.589,158.513 21.983 C 159.051 22.340,160.780 22.827,162.355 23.065 C 163.931 23.304,166.256 23.920,167.522 24.434 C 168.788 24.949,170.405 25.493,171.115 25.645 C 172.188 25.873,175.425 27.305,181.571 30.269 C 188.072 33.403,187.337 39.286,180.099 42.051 C 178.627 42.614,176.857 43.491,176.167 44.001 C 175.476 44.510,174.084 45.132,173.072 45.382 C 172.061 45.632,170.528 46.156,169.667 46.546 C 168.806 46.937,167.267 47.631,166.247 48.090 C 165.227 48.548,163.906 48.924,163.312 48.924 C 162.717 48.924,161.340 49.263,160.251 49.677 C 159.162 50.090,155.854 50.798,152.899 51.249 C 149.944 51.699,146.784 52.337,145.877 52.666 C 144.969 52.994,142.554 53.424,140.509 53.620 C 131.140 54.520,124.814 55.212,122.114 55.630 C 117.255 56.383,86.248 56.265,80.431 55.471 C 77.847 55.119,72.916 54.635,69.472 54.395 C 60.577 53.777,56.979 53.306,54.873 52.485 C 53.861 52.090,52.153 51.648,51.076 51.503 C 48.408 51.141,43.625 50.150,41.487 49.516 C 40.519 49.228,38.848 48.791,37.775 48.544 C 36.702 48.297,34.998 47.587,33.990 46.966 C 32.979 46.345,31.052 45.638,29.696 45.392 C 27.160 44.932,25.542 44.262,23.922 42.999 C 23.409 42.599,22.316 42.091,21.493 41.870 C 16.483 40.521,15.059 34.946,18.868 31.593 C 20.769 29.920,26.851 26.892,30.115 25.994 C 31.311 25.665,32.906 25.146,33.659 24.841 C 34.413 24.535,36.863 23.830,39.105 23.274 C 41.347 22.718,43.662 22.014,44.251 21.710 C 45.882 20.866,48.209 20.453,54.207 19.943 C 58.014 19.619,60.124 19.254,61.120 18.750 C 63.778 17.402,65.917 17.125,75.734 16.855 C 90.847 16.440,128.616 16.429,131.898 16.840 M272.447 53.635 C 280.729 55.122,281.981 55.277,284.044 55.064 C 286.905 54.769,296.624 56.102,300.391 57.306 C 302.114 57.857,303.938 58.309,304.445 58.312 C 305.682 58.319,310.535 59.380,312.720 60.122 C 313.689 60.451,316.580 61.427,319.145 62.292 C 325.813 64.539,330.866 67.087,332.564 69.058 C 333.038 69.609,333.578 70.059,333.763 70.059 C 333.949 70.059,334.595 70.575,335.200 71.207 C 337.469 73.575,334.789 77.822,329.354 80.468 C 327.847 81.202,326.053 82.164,325.366 82.606 C 324.679 83.049,322.918 83.596,321.452 83.822 C 319.986 84.048,317.700 84.740,316.371 85.359 C 315.043 85.977,313.105 86.681,312.066 86.922 C 311.027 87.163,309.295 87.611,308.219 87.919 C 304.320 89.033,291.988 91.185,285.127 91.948 C 268.130 93.838,218.337 93.304,211.518 91.159 C 210.212 90.747,208.420 90.411,207.537 90.411 C 205.522 90.411,203.875 89.115,202.936 86.792 C 201.858 84.123,201.579 60.882,202.610 59.526 C 205.352 55.916,206.278 55.594,214.677 55.325 C 219.257 55.178,222.253 54.852,225.832 54.112 C 234.292 52.361,263.677 52.060,272.447 53.635 M21.302 58.128 C 22.362 58.449,23.771 59.026,24.433 59.409 C 25.814 60.209,28.508 61.059,35.812 63.001 C 36.458 63.172,37.439 63.493,37.991 63.714 C 38.544 63.934,40.727 64.489,42.843 64.948 C 44.958 65.406,47.175 66.127,47.769 66.550 C 48.363 66.973,49.438 67.321,50.158 67.323 C 51.941 67.329,61.134 68.767,63.792 69.456 C 64.979 69.763,67.534 70.122,69.472 70.254 C 71.409 70.386,75.020 70.654,77.495 70.849 C 96.226 72.327,114.758 72.347,126.027 70.901 C 129.579 70.445,133.366 70.066,134.442 70.060 C 135.519 70.053,137.186 69.773,138.147 69.439 C 139.108 69.104,141.398 68.664,143.235 68.461 C 147.720 67.965,152.195 67.067,155.889 65.920 C 157.567 65.399,160.209 64.775,161.759 64.534 C 163.310 64.293,165.306 63.760,166.193 63.348 C 167.081 62.937,169.371 62.333,171.281 62.007 C 173.422 61.642,175.131 61.116,175.734 60.638 C 179.178 57.904,184.487 57.469,186.299 59.773 C 187.097 60.787,187.249 87.243,186.484 92.101 C 186.010 95.115,179.622 99.679,173.309 101.514 C 172.135 101.855,169.813 102.755,168.149 103.513 C 166.485 104.272,164.723 104.892,164.235 104.892 C 163.747 104.892,161.938 105.314,160.216 105.829 C 155.461 107.253,143.573 109.581,138.949 109.994 C 132.192 110.599,126.901 111.155,121.722 111.805 C 111.445 113.095,80.688 112.575,71.820 110.961 C 70.098 110.647,65.760 110.129,62.181 109.808 C 58.601 109.487,55.255 109.047,54.744 108.830 C 53.725 108.396,46.518 106.674,44.031 106.270 C 41.611 105.876,37.690 104.603,35.063 103.357 C 33.753 102.736,31.552 102.005,30.172 101.732 C 28.519 101.405,27.252 100.878,26.454 100.185 C 25.789 99.606,24.554 99.006,23.710 98.851 C 22.789 98.682,21.761 98.126,21.140 97.461 C 20.570 96.851,19.461 96.084,18.676 95.756 C 17.695 95.345,17.184 94.846,17.039 94.155 C 16.924 93.603,16.723 92.666,16.592 92.074 C 16.461 91.482,16.303 85.978,16.242 79.843 C 16.180 73.708,16.000 66.981,15.841 64.893 C 15.529 60.803,16.060 59.455,18.542 58.037 C 18.999 57.776,19.374 57.558,19.374 57.552 C 19.374 57.547,20.241 57.806,21.302 58.128 M335.485 97.386 C 336.743 100.278,337.204 129.809,336.052 133.599 C 334.992 137.084,333.758 137.732,331.838 135.812 C 331.192 135.166,330.482 134.638,330.261 134.638 C 330.039 134.638,328.568 133.361,326.992 131.800 C 323.237 128.081,320.411 125.636,318.008 124.024 C 316.934 123.304,315.349 121.977,314.485 121.076 C 313.622 120.175,312.421 119.314,311.817 119.162 C 311.213 119.010,310.444 118.468,310.109 117.956 C 309.773 117.444,309.322 117.025,309.106 117.025 C 308.891 117.025,308.115 116.500,307.383 115.857 C 306.651 115.214,305.571 114.572,304.983 114.431 C 302.382 113.804,299.478 111.952,298.255 110.140 L 297.025 108.317 298.006 106.835 C 299.290 104.895,301.887 103.919,307.176 103.389 C 309.656 103.141,311.821 102.686,312.837 102.201 C 314.481 101.414,316.019 100.996,320.258 100.181 C 321.504 99.941,322.993 99.346,323.585 98.851 C 324.563 98.033,328.855 96.673,330.456 96.673 C 330.818 96.673,331.115 96.503,331.115 96.294 C 331.115 96.086,331.599 95.662,332.189 95.353 C 333.648 94.588,334.497 95.112,335.485 97.386 M242.857 109.210 C 245.225 109.432,249.012 110.036,251.272 110.552 C 253.532 111.068,256.601 111.599,258.091 111.732 C 259.581 111.865,261.255 112.223,261.809 112.529 C 262.852 113.104,263.566 113.322,269.416 114.857 C 271.324 115.358,273.356 116.116,273.933 116.543 C 274.510 116.969,275.591 117.451,276.336 117.612 C 278.111 117.997,281.449 119.309,282.192 119.914 C 282.515 120.177,284.032 120.782,285.563 121.258 C 287.094 121.734,288.767 122.494,289.281 122.947 C 289.795 123.400,291.772 124.537,293.674 125.475 C 295.576 126.413,297.765 127.735,298.538 128.414 C 299.311 129.093,300.533 129.894,301.255 130.196 C 301.976 130.497,302.945 131.180,303.409 131.712 C 303.872 132.245,304.439 132.683,304.669 132.684 C 304.900 132.686,306.102 133.556,307.341 134.617 C 308.581 135.678,310.166 136.936,310.864 137.413 C 311.562 137.890,313.050 139.178,314.170 140.275 C 316.265 142.327,317.363 143.339,320.744 146.327 C 321.820 147.279,323.060 148.635,323.499 149.340 C 323.938 150.046,325.085 151.474,326.049 152.513 C 327.013 153.553,328.405 155.372,329.144 156.556 C 329.882 157.740,331.050 159.349,331.739 160.132 C 332.427 160.915,333.110 162.097,333.255 162.759 C 333.426 163.537,333.983 164.249,334.830 164.773 C 336.230 165.638,337.382 167.309,338.120 169.544 C 338.370 170.302,338.996 171.318,339.510 171.801 C 340.025 172.285,340.657 173.235,340.914 173.913 C 341.172 174.592,342.048 176.556,342.862 178.278 C 343.676 180.000,344.904 182.600,345.591 184.055 C 346.323 185.605,347.078 188.117,347.414 190.121 C 347.761 192.190,348.290 193.929,348.753 194.521 C 349.960 196.064,350.172 196.806,350.641 201.118 C 350.937 203.838,351.319 205.511,351.802 206.206 C 355.019 210.829,355.365 248.334,352.279 257.796 C 351.408 260.465,350.294 266.161,350.294 267.940 C 350.294 267.970,349.789 268.629,349.173 269.404 C 348.435 270.333,347.896 271.654,347.593 273.274 C 347.340 274.627,347.037 276.222,346.919 276.820 C 346.801 277.417,346.313 278.385,345.834 278.972 C 345.355 279.559,344.738 280.832,344.464 281.800 C 344.189 282.769,343.363 284.825,342.628 286.369 C 341.893 287.912,341.292 289.338,341.292 289.537 C 341.292 289.736,340.920 290.234,340.467 290.644 C 339.556 291.467,337.769 294.768,337.769 295.627 C 337.769 296.365,334.559 300.560,333.983 300.575 C 333.731 300.582,333.311 301.248,333.049 302.055 C 332.788 302.862,331.850 304.329,330.964 305.315 C 330.079 306.300,328.738 307.947,327.984 308.973 C 326.201 311.404,324.496 313.405,323.331 314.436 C 322.816 314.892,322.023 315.683,321.569 316.195 C 319.367 318.677,316.298 321.722,315.995 321.725 C 315.808 321.726,315.260 322.308,314.777 323.018 C 314.294 323.728,313.178 324.827,312.298 325.462 C 311.418 326.096,309.910 327.275,308.946 328.082 C 307.982 328.889,307.034 329.550,306.839 329.550 C 306.644 329.550,305.592 330.342,304.501 331.311 C 303.410 332.280,302.349 333.072,302.142 333.072 C 301.935 333.072,301.006 333.821,300.078 334.736 C 298.557 336.235,293.827 338.943,292.732 338.943 C 292.493 338.943,291.610 339.531,290.771 340.249 C 289.932 340.967,288.495 341.795,287.578 342.088 C 286.661 342.381,285.558 342.839,285.127 343.105 C 284.697 343.371,283.288 343.975,281.996 344.447 C 280.705 344.920,279.383 345.536,279.060 345.816 C 278.221 346.543,276.672 347.079,273.498 347.741 C 271.975 348.058,270.436 348.582,270.080 348.904 C 269.150 349.746,266.597 350.574,263.942 350.894 C 262.678 351.046,260.939 351.481,260.078 351.860 C 256.509 353.433,251.107 354.141,240.313 354.453 C 220.969 355.011,209.377 354.223,205.116 352.059 C 204.099 351.543,201.891 350.955,200.000 350.697 C 196.578 350.230,193.839 349.588,193.151 349.091 C 192.935 348.936,191.350 348.329,189.628 347.742 C 187.906 347.155,186.321 346.541,186.106 346.377 C 185.890 346.213,184.414 345.614,182.825 345.045 C 181.236 344.476,179.474 343.693,178.911 343.305 C 178.347 342.917,175.845 341.608,173.349 340.396 C 170.853 339.184,168.590 337.926,168.319 337.599 C 168.048 337.272,166.915 336.574,165.801 336.047 C 164.688 335.521,163.447 334.725,163.044 334.280 C 162.641 333.835,161.552 333.025,160.623 332.481 C 159.694 331.937,158.796 331.273,158.626 331.006 C 158.456 330.739,157.524 330.009,156.556 329.383 C 155.587 328.758,153.826 327.415,152.642 326.400 C 151.458 325.385,149.931 324.272,149.248 323.927 C 148.566 323.582,147.088 322.064,145.965 320.554 C 144.842 319.044,143.702 317.808,143.430 317.808 C 143.159 317.808,142.522 317.113,142.016 316.264 C 141.510 315.415,140.479 314.307,139.726 313.803 C 138.954 313.286,137.985 312.106,137.507 311.099 C 137.039 310.117,135.941 308.746,135.066 308.053 C 134.191 307.360,132.702 305.617,131.757 304.179 C 125.788 295.102,124.455 292.932,122.606 289.279 C 121.474 287.041,120.548 284.735,120.548 284.153 C 120.548 283.572,120.203 282.784,119.781 282.402 C 118.977 281.675,118.036 279.165,117.573 276.517 C 117.415 275.611,116.756 274.314,116.011 273.439 C 115.001 272.255,114.672 271.451,114.488 269.721 C 114.041 265.515,113.400 262.558,112.893 262.364 C 112.247 262.116,111.546 260.132,111.546 258.552 C 111.546 257.885,111.287 255.930,110.969 254.207 C 108.750 242.183,108.224 229.114,109.554 219.053 C 110.004 215.648,110.372 211.917,110.372 210.762 C 110.372 209.272,110.879 207.232,112.115 203.747 C 113.074 201.044,114.048 197.730,114.279 196.383 C 114.826 193.194,115.743 190.728,116.609 190.117 C 117.020 189.827,117.420 188.839,117.592 187.686 C 117.952 185.267,118.876 182.903,119.565 182.639 C 119.851 182.529,120.381 181.415,120.742 180.163 C 121.103 178.911,121.974 177.006,122.677 175.930 C 123.381 174.853,124.079 173.464,124.230 172.843 C 124.380 172.221,124.929 171.155,125.449 170.473 C 125.970 169.791,126.758 168.413,127.201 167.411 C 127.644 166.410,128.180 165.483,128.392 165.352 C 128.605 165.221,129.141 164.403,129.583 163.535 C 130.026 162.667,131.036 161.226,131.828 160.333 C 133.524 158.420,134.674 156.813,135.524 155.169 C 135.862 154.514,137.299 152.808,138.716 151.377 C 140.132 149.946,141.292 148.660,141.292 148.519 C 141.292 148.181,148.420 141.292,148.769 141.292 C 148.918 141.292,150.158 140.219,151.526 138.908 C 152.893 137.597,154.628 136.183,155.382 135.766 C 156.972 134.885,159.674 132.815,161.667 130.952 C 162.433 130.236,163.490 129.516,164.015 129.352 C 164.541 129.187,165.361 128.666,165.838 128.194 C 166.315 127.722,168.736 126.321,171.217 125.082 C 173.699 123.843,175.820 122.681,175.932 122.502 C 176.043 122.322,177.321 121.786,178.771 121.312 C 180.222 120.837,181.761 120.141,182.192 119.765 C 183.404 118.704,184.358 118.309,186.790 117.860 C 188.025 117.631,189.535 117.075,190.145 116.624 C 190.756 116.172,192.827 115.388,194.747 114.880 C 196.667 114.372,199.472 113.518,200.978 112.981 C 202.583 112.409,205.490 111.818,207.996 111.555 C 210.349 111.308,212.639 110.902,213.085 110.652 C 215.679 109.196,233.495 108.333,242.857 109.210 M23.258 115.243 C 24.722 115.583,26.384 116.185,26.952 116.581 C 27.520 116.977,29.658 117.708,31.703 118.205 C 33.748 118.702,36.072 119.446,36.869 119.857 C 37.665 120.269,40.221 120.909,42.548 121.279 C 45.371 121.728,47.169 122.226,47.950 122.776 C 48.912 123.455,49.916 123.642,53.620 123.833 C 56.564 123.984,59.747 124.460,62.818 125.208 C 73.517 127.814,98.632 128.300,127.789 126.465 C 131.018 126.262,133.971 125.972,134.351 125.821 C 135.380 125.413,137.374 126.394,138.168 127.699 C 139.029 129.115,138.396 130.231,134.724 133.778 C 133.454 135.005,131.953 136.742,131.389 137.640 C 130.824 138.538,130.035 139.377,129.634 139.504 C 129.234 139.631,128.517 140.427,128.042 141.273 C 127.566 142.120,126.827 142.923,126.400 143.059 C 125.972 143.195,125.377 143.894,125.076 144.613 C 124.776 145.333,123.556 146.981,122.365 148.276 C 121.174 149.571,119.850 151.303,119.422 152.126 C 118.995 152.948,118.104 154.120,117.444 154.730 C 116.783 155.340,116.243 156.000,116.243 156.197 C 116.243 157.144,113.619 161.935,112.184 163.609 C 111.295 164.645,110.274 165.918,109.914 166.437 C 108.078 169.093,102.938 169.398,84.932 167.918 C 82.456 167.714,78.493 167.440,76.125 167.309 C 70.581 167.001,59.189 165.670,56.164 164.977 C 54.873 164.681,52.588 164.223,51.086 163.959 C 49.585 163.695,47.647 163.170,46.781 162.792 C 45.914 162.415,43.471 161.750,41.351 161.315 C 39.231 160.880,36.589 160.104,35.480 159.590 C 34.371 159.076,32.271 158.363,30.814 158.006 C 29.356 157.648,27.510 156.912,26.711 156.369 C 25.912 155.826,25.115 155.382,24.940 155.382 C 24.765 155.382,23.353 154.785,21.802 154.055 C 16.239 151.437,16.103 150.930,16.357 133.750 C 16.526 122.315,16.475 120.756,15.876 119.190 C 15.095 117.143,15.153 117.006,17.541 115.273 C 18.820 114.345,19.534 114.057,19.974 114.293 C 20.316 114.476,21.794 114.904,23.258 115.243 M227.885 151.443 C 226.217 152.651,225.274 154.577,224.280 158.807 C 223.516 162.053,220.365 164.384,216.739 164.384 C 216.337 164.384,215.483 164.655,214.840 164.987 C 214.198 165.319,212.559 165.935,211.197 166.356 C 209.836 166.776,208.036 167.669,207.199 168.339 C 206.361 169.010,204.795 170.129,203.718 170.827 C 202.642 171.525,201.057 172.754,200.196 173.559 C 199.335 174.363,198.278 175.314,197.847 175.671 C 197.417 176.028,196.228 177.581,195.206 179.121 C 194.183 180.662,192.742 182.645,192.003 183.530 C 191.061 184.658,190.532 185.807,190.230 187.383 C 189.993 188.618,189.458 190.371,189.041 191.278 C 186.450 196.909,186.464 207.605,189.067 212.058 C 189.483 212.770,189.828 213.650,189.832 214.015 C 189.846 215.026,191.208 217.552,193.147 220.157 C 194.108 221.448,195.390 223.328,195.996 224.335 C 197.641 227.067,204.554 233.079,206.890 233.810 C 207.342 233.951,208.172 234.583,208.734 235.213 C 209.316 235.866,210.476 236.551,211.433 236.805 C 212.356 237.051,214.168 237.595,215.460 238.015 C 216.751 238.435,218.507 238.957,219.362 239.176 C 224.510 240.492,224.408 240.096,224.528 259.100 C 224.584 268.033,224.744 276.265,224.884 277.393 C 225.778 284.613,218.625 288.175,213.307 283.158 C 212.554 282.447,210.837 280.964,209.491 279.862 C 208.146 278.760,207.045 277.633,207.045 277.358 C 207.045 277.084,206.538 276.373,205.917 275.778 C 205.297 275.184,204.492 273.962,204.128 273.063 C 202.052 267.936,200.715 265.843,198.433 264.152 C 191.607 259.094,182.810 270.150,188.610 276.496 C 189.477 277.445,190.788 280.016,191.128 281.436 C 191.260 281.989,191.946 283.063,192.651 283.822 C 195.774 287.184,196.869 288.465,196.869 288.756 C 196.869 288.928,197.409 289.387,198.068 289.777 C 198.728 290.166,199.446 290.876,199.663 291.353 C 199.881 291.831,200.706 292.555,201.497 292.963 C 202.288 293.371,203.386 294.009,203.937 294.380 C 206.885 296.366,211.822 298.537,214.873 299.189 C 222.351 300.789,224.070 302.033,224.696 306.301 C 225.314 310.522,226.357 312.351,228.894 313.663 C 231.343 314.929,236.010 314.203,236.955 312.408 C 237.261 311.826,237.859 311.060,238.283 310.705 C 238.818 310.258,239.192 309.177,239.501 307.183 C 240.334 301.808,241.120 301.048,247.111 299.815 C 249.132 299.399,251.379 298.704,252.105 298.270 C 253.976 297.152,256.310 296.068,258.051 295.509 C 258.873 295.245,259.643 294.776,259.762 294.467 C 259.880 294.157,260.440 293.661,261.006 293.364 C 261.911 292.889,266.760 288.219,270.301 284.412 C 270.973 283.690,271.743 282.411,272.012 281.569 C 272.281 280.728,272.899 279.599,273.385 279.061 C 276.486 275.626,278.449 266.624,277.552 259.956 C 277.109 256.666,274.663 248.814,273.750 247.750 C 273.473 247.427,272.877 246.303,272.427 245.253 C 271.977 244.202,271.145 242.793,270.579 242.122 C 270.012 241.450,269.304 240.316,269.005 239.602 C 268.660 238.778,268.045 238.159,267.323 237.908 C 266.697 237.689,265.838 236.921,265.412 236.201 C 264.987 235.481,264.142 234.583,263.533 234.206 C 262.925 233.829,261.722 232.856,260.861 232.044 C 260.000 231.231,258.239 230.112,256.947 229.557 C 255.656 229.002,253.982 228.219,253.229 227.816 C 251.786 227.046,248.636 226.139,244.969 225.437 C 242.610 224.985,241.496 224.191,240.428 222.200 C 239.387 220.259,239.379 182.847,240.420 180.931 C 242.451 177.191,246.469 178.326,255.266 185.123 C 256.310 185.929,258.708 189.176,258.708 189.783 C 258.708 189.954,259.130 190.584,259.645 191.183 C 260.160 191.783,260.965 193.565,261.433 195.143 C 262.153 197.567,262.494 198.142,263.628 198.843 C 264.366 199.299,264.971 199.820,264.971 200.000 C 264.971 200.179,265.761 200.629,266.727 200.998 C 273.083 203.425,278.736 196.858,275.803 190.452 C 275.291 189.335,274.744 187.723,274.585 186.872 C 274.427 186.020,273.873 184.762,273.353 184.077 C 272.833 183.392,272.407 182.649,272.407 182.427 C 272.407 182.205,272.071 181.844,271.660 181.624 C 271.248 181.404,270.412 180.365,269.800 179.315 C 268.371 176.861,262.942 171.774,260.665 170.756 C 259.697 170.323,258.219 169.415,257.381 168.740 C 256.543 168.065,254.966 167.247,253.875 166.923 C 252.785 166.599,251.239 165.882,250.441 165.329 C 249.289 164.530,248.281 164.258,245.555 164.010 C 241.133 163.607,240.183 162.382,239.326 155.980 C 238.688 151.219,231.907 148.530,227.885 151.443 M22.281 170.898 C 22.835 171.026,23.712 171.396,24.230 171.721 C 24.749 172.045,26.070 172.539,27.166 172.818 C 33.115 174.333,35.537 175.099,36.966 175.914 C 38.477 176.777,41.122 177.372,45.738 177.887 C 46.892 178.015,48.217 178.370,48.683 178.676 C 49.149 178.981,53.224 179.774,57.740 180.437 C 62.255 181.101,67.622 181.973,69.667 182.376 C 73.564 183.142,81.873 183.663,91.781 183.760 C 98.363 183.825,99.010 184.026,100.228 186.384 C 101.179 188.224,101.172 188.360,100.045 189.699 C 99.394 190.473,98.974 191.691,98.659 193.720 C 98.411 195.321,97.783 197.874,97.264 199.392 C 96.746 200.910,96.123 203.738,95.881 205.675 C 93.780 222.497,91.727 226.693,86.621 224.597 C 86.015 224.348,84.198 224.097,82.583 224.040 C 74.826 223.763,62.191 222.327,56.594 221.085 C 54.678 220.660,51.973 220.206,50.584 220.076 C 48.791 219.908,47.757 219.587,47.023 218.971 C 46.252 218.323,45.240 218.032,43.053 217.828 C 39.386 217.486,35.893 216.559,34.945 215.675 C 34.546 215.304,33.478 214.881,32.570 214.736 C 30.372 214.385,27.344 213.351,26.608 212.702 C 26.282 212.413,24.521 211.615,22.694 210.929 C 17.260 208.885,15.830 206.337,16.091 199.161 C 16.236 195.195,16.261 187.720,16.136 186.106 C 16.085 185.460,16.153 183.756,16.285 182.319 C 16.466 180.359,16.362 179.280,15.872 177.995 C 15.151 176.106,15.044 176.455,18.322 169.989 L 19.350 167.962 20.312 169.314 C 20.841 170.057,21.727 170.770,22.281 170.898 M222.125 179.655 C 224.074 180.859,224.810 182.258,224.798 184.736 C 224.793 185.920,224.764 193.865,224.734 202.392 C 224.701 211.669,224.522 218.310,224.287 218.928 C 221.697 225.740,206.748 217.438,203.145 207.186 C 201.572 202.711,203.646 189.041,205.898 189.041 C 206.089 189.041,206.594 188.381,207.018 187.573 C 207.730 186.220,208.689 185.260,212.590 181.998 C 215.522 179.546,220.120 178.416,222.125 179.655 M23.315 227.202 C 24.760 227.955,26.314 228.573,26.768 228.575 C 27.222 228.577,28.535 229.018,29.687 229.554 C 30.838 230.090,32.011 230.528,32.292 230.528 C 32.573 230.528,34.006 231.068,35.476 231.727 C 38.032 232.874,43.085 234.028,45.618 234.044 C 46.275 234.048,47.684 234.478,48.749 235.000 C 50.677 235.945,55.595 236.868,61.448 237.383 C 63.063 237.525,65.264 237.886,66.341 238.185 C 68.545 238.796,75.008 239.360,84.483 239.766 C 91.676 240.075,92.834 240.520,93.282 243.149 C 93.401 243.850,93.665 245.215,93.869 246.184 C 94.072 247.153,94.422 248.827,94.645 249.905 C 94.869 250.983,95.169 253.449,95.313 255.385 C 95.457 257.320,96.017 260.489,96.556 262.427 C 101.637 280.667,101.486 281.240,91.781 280.599 C 88.982 280.415,83.392 280.082,79.357 279.860 C 72.377 279.476,68.705 279.027,61.644 277.694 C 59.922 277.368,56.047 276.760,53.033 276.342 C 50.020 275.923,45.264 274.947,42.466 274.173 C 39.667 273.399,36.784 272.610,36.058 272.421 C 35.332 272.231,34.548 271.887,34.316 271.655 C 34.084 271.423,33.662 271.233,33.377 271.233 C 31.497 271.233,20.227 266.038,18.354 264.308 C 16.631 262.717,16.497 261.407,16.403 245.205 C 16.310 229.142,16.363 228.565,18.098 226.712 C 19.228 225.507,20.247 225.602,23.315 227.202 M249.824 244.180 C 252.970 246.080,255.969 248.874,255.969 249.904 C 255.969 250.151,256.426 250.780,256.984 251.302 C 257.543 251.824,258.268 252.779,258.596 253.425 C 258.923 254.070,259.499 254.951,259.874 255.382 C 262.209 258.057,262.357 268.476,260.102 271.433 C 259.590 272.104,258.899 273.304,258.567 274.099 C 257.902 275.690,254.833 279.452,254.200 279.452 C 253.981 279.452,252.947 280.159,251.902 281.022 C 250.856 281.886,249.544 282.707,248.985 282.848 C 248.426 282.988,247.404 283.436,246.714 283.843 C 244.397 285.210,241.474 284.705,240.495 282.768 C 239.330 280.465,239.274 246.033,240.431 243.913 C 241.940 241.150,244.949 241.235,249.824 244.180 M25.338 283.792 C 27.009 284.241,28.992 285.002,29.746 285.483 C 30.499 285.964,32.613 286.672,34.442 287.056 C 36.272 287.441,38.943 288.265,40.379 288.888 C 41.814 289.510,43.399 290.019,43.901 290.019 C 45.469 290.017,51.811 291.271,52.838 291.785 C 53.895 292.314,59.196 293.205,65.753 293.954 C 68.014 294.212,70.307 294.649,70.850 294.925 C 72.440 295.733,85.986 296.299,97.074 296.020 C 108.441 295.735,109.274 295.888,110.513 298.485 C 110.878 299.251,111.690 300.522,112.316 301.309 C 112.943 302.096,114.280 304.325,115.288 306.262 C 116.295 308.200,117.519 310.225,118.006 310.763 C 118.494 311.301,119.160 312.270,119.487 312.916 C 119.813 313.562,120.625 314.491,121.291 314.982 C 121.958 315.472,123.300 317.084,124.275 318.564 C 125.250 320.044,126.307 321.354,126.623 321.475 C 126.939 321.597,127.470 322.377,127.803 323.210 C 128.200 324.202,129.334 325.495,131.095 326.961 C 135.430 330.572,134.610 334.082,129.120 335.418 C 121.209 337.343,73.550 336.477,67.060 334.291 C 65.447 333.748,62.759 333.369,58.481 333.083 C 50.997 332.582,48.819 332.185,47.764 331.130 C 47.326 330.691,46.835 330.331,46.673 330.329 C 43.987 330.300,39.072 329.356,37.605 328.587 C 36.619 328.071,34.430 327.379,32.741 327.051 C 30.804 326.674,29.208 326.102,28.421 325.502 C 27.735 324.978,26.299 324.253,25.231 323.890 C 24.162 323.528,23.023 323.002,22.701 322.723 C 22.378 322.443,21.185 321.912,20.051 321.543 C 16.282 320.316,16.050 319.056,16.241 300.912 C 16.395 286.230,16.646 283.575,17.914 283.243 C 19.546 282.815,22.526 283.035,25.338 283.792 " stroke="current" fill="current" fill-rule="evenodd"></path><path stroke="current" id="path1" d="M60.665 0.756 C 60.665 1.172,60.357 1.603,59.980 1.714 C 58.144 2.254,53.094 3.085,50.294 3.308 C 46.126 3.641,43.060 4.248,41.941 4.961 C 41.437 5.282,39.147 5.943,36.853 6.430 C 34.558 6.917,31.977 7.673,31.115 8.111 C 30.254 8.548,28.053 9.362,26.223 9.919 C 22.747 10.978,13.308 15.555,11.912 16.858 C 11.468 17.273,10.965 17.613,10.794 17.613 C 10.176 17.613,7.179 20.165,4.501 22.973 C 2.666 24.897,1.470 25.844,0.881 25.839 C 0.161 25.833,0.000 26.047,0.000 27.006 C 0.000 28.523,1.568 28.647,2.855 27.232 C 4.162 25.796,5.604 23.920,6.292 22.761 C 6.632 22.190,7.265 21.543,7.701 21.324 C 8.136 21.105,9.003 20.525,9.627 20.035 C 11.381 18.658,16.172 15.656,16.614 15.656 C 16.832 15.656,18.034 15.024,19.284 14.252 C 20.535 13.480,23.973 11.999,26.924 10.962 C 29.875 9.924,33.346 8.623,34.638 8.069 C 35.962 7.503,37.755 7.058,38.748 7.050 C 41.141 7.031,44.530 6.083,45.944 5.038 C 46.985 4.268,47.924 4.125,54.768 3.693 C 63.337 3.151,66.238 2.451,66.466 0.870 C 66.585 0.037,66.466 0.000,63.628 0.000 C 60.961 0.000,60.665 0.075,60.665 0.756 M135.421 0.741 C 135.421 1.148,135.709 1.592,136.062 1.728 C 137.649 2.337,143.987 3.525,145.774 3.549 C 149.324 3.595,154.746 4.578,157.174 5.615 C 158.640 6.241,160.942 6.788,163.169 7.040 C 165.591 7.315,167.414 7.769,168.692 8.417 C 169.741 8.948,171.975 9.759,173.656 10.220 C 177.026 11.142,179.513 12.245,182.408 14.103 C 183.642 14.895,185.104 15.435,186.544 15.630 C 188.047 15.834,188.939 16.174,189.285 16.675 C 189.982 17.685,190.309 17.987,192.418 19.569 C 197.930 23.706,201.307 29.107,201.706 34.425 C 202.092 39.566,204.198 41.181,209.460 40.371 C 214.919 39.531,217.951 39.194,223.875 38.773 C 226.996 38.551,232.280 38.165,235.616 37.916 C 242.110 37.430,262.880 37.681,271.429 38.348 C 274.012 38.550,279.452 38.903,283.519 39.133 C 291.113 39.562,292.194 39.729,295.890 41.036 C 297.295 41.533,300.150 41.958,304.110 42.260 C 308.566 42.601,310.423 42.897,311.106 43.377 C 313.569 45.110,314.180 45.350,316.780 45.609 C 318.399 45.769,320.309 46.257,321.331 46.770 C 322.299 47.257,324.149 47.980,325.440 48.376 C 326.732 48.773,328.705 49.675,329.825 50.381 C 330.944 51.086,331.959 51.663,332.079 51.663 C 332.330 51.663,335.355 52.968,337.362 53.942 C 338.106 54.303,339.427 55.270,340.297 56.091 C 341.167 56.912,342.814 58.124,343.958 58.784 C 345.102 59.445,346.272 60.358,346.559 60.814 C 347.500 62.313,349.894 66.693,350.909 68.774 L 351.905 70.815 351.991 116.523 C 352.084 165.835,352.048 164.971,354.102 167.237 C 354.533 167.713,354.995 168.689,355.130 169.408 C 355.265 170.126,355.982 171.711,356.723 172.930 C 357.464 174.149,358.275 175.934,358.525 176.896 C 358.776 177.857,359.608 179.883,360.375 181.397 C 361.628 183.867,363.534 188.852,365.544 194.912 C 365.937 196.096,366.530 198.829,366.861 200.985 C 367.193 203.141,367.865 205.783,368.354 206.856 C 370.297 211.112,369.824 257.013,367.800 260.665 C 367.049 262.020,366.772 263.218,366.601 265.855 C 366.440 268.338,366.123 269.794,365.454 271.139 C 364.945 272.159,364.211 274.138,363.822 275.536 C 363.433 276.935,362.784 278.500,362.379 279.014 C 361.975 279.528,361.643 280.233,361.642 280.581 C 361.637 281.822,360.835 284.078,359.916 285.432 C 359.403 286.189,358.867 287.222,358.725 287.729 C 358.280 289.319,357.206 291.727,356.306 293.151 C 355.830 293.904,355.253 295.234,355.025 296.106 C 354.797 296.978,353.992 298.387,353.235 299.237 C 352.479 300.087,351.860 300.906,351.859 301.057 C 351.859 301.207,351.354 302.088,350.737 303.014 C 350.120 303.939,349.410 305.331,349.160 306.107 C 348.910 306.882,348.254 307.939,347.701 308.455 C 347.149 308.971,346.024 310.538,345.200 311.937 C 344.376 313.337,342.940 315.402,342.008 316.527 C 341.076 317.651,339.521 319.566,338.552 320.782 C 337.583 321.998,335.524 324.266,333.975 325.822 C 332.427 327.378,331.041 329.123,330.896 329.701 C 330.718 330.410,330.185 330.939,329.259 331.326 C 328.504 331.641,327.176 332.706,326.307 333.693 C 325.439 334.680,323.553 336.425,322.117 337.570 C 320.681 338.716,318.816 340.309,317.972 341.110 C 317.129 341.910,315.822 342.961,315.068 343.443 C 314.315 343.926,313.363 344.696,312.953 345.155 C 312.543 345.613,312.033 345.988,311.819 345.988 C 311.342 345.988,307.365 348.601,307.039 349.129 C 306.909 349.339,306.481 349.511,306.087 349.511 C 305.694 349.511,304.508 350.105,303.452 350.831 C 302.396 351.557,300.835 352.528,299.983 352.988 C 293.862 356.295,290.685 357.868,288.650 358.601 C 287.358 359.066,285.659 359.864,284.874 360.375 C 284.089 360.885,282.339 361.561,280.985 361.877 C 279.631 362.193,278.336 362.600,278.107 362.782 C 277.042 363.627,267.534 366.527,264.388 366.966 C 261.325 367.394,260.747 367.601,259.919 368.563 L 258.969 369.667 233.440 369.667 C 210.545 369.667,207.836 369.602,207.185 369.038 C 206.011 368.021,204.012 367.496,199.063 366.906 C 195.059 366.428,194.058 366.158,191.906 364.975 C 190.531 364.219,189.055 363.601,188.628 363.601 C 188.200 363.601,186.488 362.919,184.825 362.087 C 183.161 361.254,180.424 360.100,178.743 359.523 C 174.955 358.223,173.923 357.769,172.304 356.691 C 171.601 356.223,170.281 355.716,169.369 355.565 C 167.564 355.266,166.470 354.798,165.558 353.934 C 164.633 353.059,160.887 350.675,158.353 349.350 C 157.081 348.685,155.584 347.885,155.026 347.572 C 153.541 346.739,151.504 346.860,149.508 347.901 C 147.972 348.702,146.748 348.885,139.828 349.354 C 135.471 349.649,130.628 350.165,129.065 350.501 C 123.236 351.755,121.636 351.887,109.393 352.119 C 94.147 352.409,73.137 351.707,71.853 350.866 C 70.919 350.255,67.024 349.798,56.597 349.076 C 49.782 348.605,49.564 348.563,48.494 347.516 C 47.638 346.679,46.889 346.391,45.125 346.216 C 42.349 345.942,39.895 345.329,34.051 343.450 C 31.575 342.654,28.425 341.671,27.050 341.266 C 25.675 340.860,23.209 339.844,21.570 339.007 C 13.704 334.989,12.566 334.361,11.130 333.240 C 10.282 332.579,9.024 331.812,8.334 331.536 C 7.452 331.184,6.947 330.634,6.634 329.685 C 5.514 326.293,0.000 322.440,0.000 325.049 C 0.000 325.827,0.197 326.027,0.962 326.027 C 1.680 326.027,2.481 326.718,4.129 328.758 C 5.343 330.259,6.979 331.873,7.766 332.343 C 8.554 332.813,9.656 333.618,10.217 334.132 C 11.507 335.315,12.719 336.008,18.888 339.095 C 21.634 340.468,24.100 341.770,24.367 341.987 C 24.635 342.204,25.910 342.594,27.202 342.854 C 28.493 343.115,30.871 343.844,32.485 344.474 C 35.483 345.645,38.566 346.414,43.263 347.165 C 44.716 347.397,46.644 348.020,47.547 348.549 C 48.830 349.301,49.738 349.511,51.708 349.511 C 55.427 349.511,66.760 351.027,72.407 352.281 C 78.529 353.639,124.500 353.042,131.921 351.507 C 133.978 351.082,138.381 350.453,141.706 350.110 C 145.030 349.767,148.897 349.320,150.300 349.118 C 154.231 348.552,158.566 350.157,163.014 353.824 C 164.066 354.692,167.759 356.556,168.427 356.556 C 168.721 356.556,170.162 357.192,171.627 357.970 C 173.093 358.748,175.470 359.785,176.909 360.274 C 178.348 360.764,180.846 361.799,182.460 362.576 C 184.073 363.352,185.994 364.101,186.728 364.240 C 188.350 364.548,189.399 365.064,190.199 365.946 C 190.596 366.384,191.955 366.767,194.168 367.066 C 196.019 367.316,198.837 367.878,200.430 368.315 C 202.023 368.753,204.295 369.365,205.479 369.676 C 207.237 370.138,212.353 370.256,233.339 370.318 L 259.047 370.393 261.066 369.345 C 262.177 368.769,263.378 368.300,263.735 368.304 C 265.270 368.319,272.129 366.506,275.734 365.133 C 277.886 364.313,280.251 363.523,280.989 363.379 C 281.727 363.235,283.629 362.433,285.215 361.597 C 286.802 360.762,288.370 360.078,288.700 360.078 C 289.457 360.078,297.939 355.835,301.566 353.641 C 303.072 352.730,305.626 351.211,307.241 350.266 C 308.855 349.321,310.410 348.323,310.696 348.048 C 310.982 347.773,311.598 347.345,312.066 347.096 C 313.167 346.510,315.415 344.782,318.591 342.078 C 319.990 340.888,321.928 339.274,322.896 338.494 C 323.865 337.713,325.882 335.910,327.378 334.486 C 328.874 333.063,330.305 331.898,330.559 331.898 C 330.813 331.898,331.241 331.366,331.510 330.716 C 331.779 330.066,332.466 329.141,333.035 328.661 C 334.332 327.569,340.640 320.581,341.127 319.698 C 341.325 319.338,342.149 318.281,342.958 317.350 C 345.189 314.780,349.729 308.148,351.244 305.246 C 351.985 303.826,353.047 302.122,353.605 301.459 C 354.163 300.797,354.821 299.675,355.068 298.966 C 355.315 298.258,356.191 296.489,357.015 295.035 C 357.839 293.581,358.513 292.201,358.513 291.968 C 358.513 291.735,358.862 290.893,359.289 290.097 C 360.619 287.615,362.640 282.573,364.183 277.886 C 364.998 275.411,365.889 272.940,366.164 272.396 C 366.438 271.852,367.018 269.474,367.453 267.112 C 367.888 264.750,368.541 262.230,368.904 261.511 C 370.830 257.696,370.810 210.872,368.879 203.902 C 368.553 202.725,367.828 199.560,367.269 196.869 C 366.695 194.106,365.760 190.970,365.122 189.664 C 364.501 188.391,363.992 187.112,363.992 186.820 C 363.992 186.205,358.010 172.237,357.189 170.934 C 356.886 170.452,356.508 169.628,356.350 169.102 C 356.192 168.575,355.552 167.314,354.927 166.299 C 352.719 162.709,352.720 162.743,352.729 115.264 C 352.738 66.488,352.839 68.393,350.033 64.192 C 349.100 62.795,348.337 61.467,348.337 61.240 C 348.337 60.639,345.261 57.803,343.444 56.729 C 342.583 56.220,341.373 55.305,340.755 54.695 C 340.137 54.085,338.374 52.989,336.838 52.260 C 335.301 51.531,333.413 50.506,332.642 49.983 C 331.871 49.460,330.023 48.642,328.536 48.166 C 327.049 47.690,325.235 46.953,324.506 46.528 C 323.778 46.104,321.695 45.497,319.878 45.180 C 316.757 44.636,315.544 44.219,313.016 42.823 C 312.389 42.477,310.074 42.077,307.456 41.864 C 302.498 41.460,300.726 41.124,297.296 39.938 C 295.659 39.372,292.741 38.963,287.315 38.539 C 283.098 38.209,277.710 37.677,275.342 37.356 C 261.875 35.533,235.148 35.645,224.266 37.571 C 223.082 37.781,219.824 38.149,217.025 38.388 C 206.927 39.254,206.461 39.262,205.151 38.585 C 203.854 37.913,203.753 37.668,203.141 33.659 C 201.989 26.115,193.451 16.050,186.841 14.446 C 185.791 14.191,184.403 13.592,183.757 13.114 C 181.837 11.694,179.639 10.710,176.321 9.784 C 174.599 9.304,172.397 8.518,171.429 8.038 C 170.460 7.558,167.653 6.770,165.190 6.288 C 162.728 5.805,159.863 5.075,158.823 4.665 C 157.784 4.255,155.308 3.738,153.320 3.516 C 145.637 2.658,142.466 1.847,142.466 0.741 C 142.466 0.069,142.138 0.000,138.943 0.000 C 135.748 0.000,135.421 0.069,135.421 0.741 M75.734 16.855 C 65.917 17.125,63.778 17.402,61.120 18.750 C 60.124 19.254,58.014 19.619,54.207 19.943 C 48.209 20.453,45.882 20.866,44.251 21.710 C 43.662 22.014,41.347 22.718,39.105 23.274 C 36.863 23.830,34.413 24.535,33.659 24.841 C 32.906 25.146,31.311 25.665,30.115 25.994 C 26.851 26.892,20.769 29.920,18.868 31.593 C 15.059 34.946,16.483 40.521,21.493 41.870 C 22.316 42.091,23.409 42.599,23.922 42.999 C 25.542 44.262,27.160 44.932,29.696 45.392 C 31.052 45.638,32.979 46.345,33.990 46.966 C 34.998 47.587,36.702 48.297,37.775 48.544 C 38.848 48.791,40.519 49.228,41.487 49.516 C 43.625 50.150,48.408 51.141,51.076 51.503 C 52.153 51.648,53.861 52.090,54.873 52.485 C 56.979 53.306,60.577 53.777,69.472 54.395 C 72.916 54.635,77.847 55.119,80.431 55.471 C 86.248 56.265,117.255 56.383,122.114 55.630 C 124.814 55.212,131.140 54.520,140.509 53.620 C 142.554 53.424,144.969 52.994,145.877 52.666 C 146.784 52.337,149.944 51.699,152.899 51.249 C 155.854 50.798,159.162 50.090,160.251 49.677 C 161.340 49.263,162.717 48.924,163.312 48.924 C 163.906 48.924,165.227 48.548,166.247 48.090 C 167.267 47.631,168.806 46.937,169.667 46.546 C 170.528 46.156,172.061 45.632,173.072 45.382 C 174.084 45.132,175.476 44.510,176.167 44.001 C 176.857 43.491,178.627 42.614,180.099 42.051 C 187.337 39.286,188.072 33.403,181.571 30.269 C 175.425 27.305,172.188 25.873,171.115 25.645 C 170.405 25.493,168.788 24.949,167.522 24.434 C 166.256 23.920,163.931 23.304,162.355 23.065 C 160.780 22.827,159.051 22.340,158.513 21.983 C 156.412 20.589,154.973 20.259,149.108 19.824 C 143.947 19.442,142.872 19.250,141.988 18.553 C 141.229 17.955,140.117 17.661,137.890 17.469 C 136.209 17.325,133.513 17.041,131.898 16.840 C 128.616 16.429,90.847 16.440,75.734 16.855 M123.483 17.602 C 129.028 17.824,132.467 18.143,134.051 18.582 C 136.470 19.253,137.874 19.470,146.575 20.523 C 149.419 20.867,152.908 21.566,154.485 22.109 C 156.037 22.642,159.119 23.408,161.334 23.811 C 163.550 24.214,165.978 24.904,166.732 25.345 C 167.485 25.786,168.692 26.270,169.413 26.421 C 172.548 27.074,181.198 31.246,183.072 33.008 C 185.678 35.458,184.103 39.086,179.576 41.064 C 178.431 41.564,175.998 42.654,174.168 43.485 C 172.339 44.316,170.225 45.109,169.472 45.246 C 168.718 45.384,167.360 45.918,166.454 46.434 C 165.548 46.950,163.963 47.538,162.932 47.740 C 161.901 47.943,158.943 48.567,156.360 49.127 C 153.777 49.688,150.078 50.409,148.141 50.729 C 146.204 51.050,143.738 51.557,142.661 51.857 C 136.532 53.567,103.230 55.565,93.542 54.805 C 90.851 54.594,84.335 54.144,79.061 53.805 C 64.876 52.895,55.015 51.529,47.945 49.496 C 46.869 49.187,44.481 48.688,42.638 48.388 C 40.795 48.088,38.274 47.363,37.034 46.777 C 35.795 46.191,33.729 45.465,32.443 45.166 C 28.156 44.165,18.788 39.052,18.138 37.357 C 16.871 34.057,24.052 28.576,32.468 26.417 C 33.858 26.060,35.482 25.517,36.077 25.209 C 36.673 24.901,39.235 24.206,41.770 23.666 C 44.305 23.125,47.172 22.357,48.141 21.960 C 49.147 21.548,51.999 21.033,54.795 20.760 C 60.621 20.190,64.112 19.638,65.048 19.137 C 68.004 17.555,100.829 16.692,123.483 17.602 M245.597 52.819 C 231.735 53.080,230.392 53.168,225.832 54.112 C 222.253 54.852,219.257 55.178,214.677 55.325 C 206.278 55.594,205.352 55.916,202.610 59.526 C 201.579 60.882,201.858 84.123,202.936 86.792 C 203.875 89.115,205.522 90.411,207.537 90.411 C 208.420 90.411,210.212 90.747,211.518 91.159 C 218.337 93.304,268.130 93.838,285.127 91.948 C 291.988 91.185,304.320 89.033,308.219 87.919 C 309.295 87.611,311.027 87.163,312.066 86.922 C 313.105 86.681,315.043 85.977,316.371 85.359 C 317.700 84.740,319.986 84.048,321.452 83.822 C 322.918 83.596,324.679 83.049,325.366 82.606 C 326.053 82.164,327.847 81.202,329.354 80.468 C 334.789 77.822,337.469 73.575,335.200 71.207 C 334.595 70.575,333.949 70.059,333.763 70.059 C 333.578 70.059,333.038 69.609,332.564 69.058 C 330.866 67.087,325.813 64.539,319.145 62.292 C 316.580 61.427,313.689 60.451,312.720 60.122 C 310.535 59.380,305.682 58.319,304.445 58.312 C 303.938 58.309,302.114 57.857,300.391 57.306 C 296.624 56.102,286.905 54.769,284.044 55.064 C 281.981 55.277,280.729 55.122,272.447 53.635 C 266.598 52.585,263.338 52.486,245.597 52.819 M260.861 54.389 C 264.169 54.911,278.421 55.969,282.151 55.969 C 286.098 55.969,290.049 56.513,296.477 57.943 C 299.276 58.566,302.982 59.233,304.712 59.426 C 306.443 59.619,308.380 60.044,309.017 60.370 C 309.655 60.696,310.789 61.095,311.539 61.256 C 318.944 62.853,329.263 67.528,332.738 70.860 L 334.687 72.728 333.723 74.622 C 331.961 78.084,325.738 81.667,318.561 83.352 C 316.556 83.823,314.396 84.476,313.762 84.804 C 312.074 85.677,306.460 87.262,305.022 87.272 C 304.339 87.276,301.785 87.707,299.346 88.230 C 283.097 91.711,253.325 93.287,232.290 91.779 C 227.123 91.408,221.047 90.974,218.787 90.814 C 213.954 90.472,206.507 88.791,205.379 87.788 C 203.648 86.247,203.523 85.224,203.523 72.668 C 203.523 56.510,203.135 56.912,219.569 55.991 C 223.121 55.792,228.317 55.501,231.115 55.345 C 233.914 55.188,236.732 54.831,237.378 54.551 C 238.802 53.934,257.178 53.807,260.861 54.389 M18.542 58.037 C 16.060 59.455,15.529 60.803,15.841 64.893 C 16.000 66.981,16.180 73.708,16.242 79.843 C 16.303 85.978,16.461 91.482,16.592 92.074 C 16.723 92.666,16.924 93.603,17.039 94.155 C 17.184 94.846,17.695 95.345,18.676 95.756 C 19.461 96.084,20.570 96.851,21.140 97.461 C 21.761 98.126,22.789 98.682,23.710 98.851 C 24.554 99.006,25.789 99.606,26.454 100.185 C 27.252 100.878,28.519 101.405,30.172 101.732 C 31.552 102.005,33.753 102.736,35.063 103.357 C 37.690 104.603,41.611 105.876,44.031 106.270 C 46.518 106.674,53.725 108.396,54.744 108.830 C 55.255 109.047,58.601 109.487,62.181 109.808 C 65.760 110.129,70.098 110.647,71.820 110.961 C 80.688 112.575,111.445 113.095,121.722 111.805 C 126.901 111.155,132.192 110.599,138.949 109.994 C 143.573 109.581,155.461 107.253,160.216 105.829 C 161.938 105.314,163.747 104.892,164.235 104.892 C 164.723 104.892,166.485 104.272,168.149 103.513 C 169.813 102.755,172.135 101.855,173.309 101.514 C 179.622 99.679,186.010 95.115,186.484 92.101 C 187.249 87.243,187.097 60.787,186.299 59.773 C 184.487 57.469,179.178 57.904,175.734 60.638 C 175.131 61.116,173.422 61.642,171.281 62.007 C 169.371 62.333,167.081 62.937,166.193 63.348 C 165.306 63.760,163.310 64.293,161.759 64.534 C 160.209 64.775,157.567 65.399,155.889 65.920 C 152.195 67.067,147.720 67.965,143.235 68.461 C 141.398 68.664,139.108 69.104,138.147 69.439 C 137.186 69.773,135.519 70.053,134.442 70.060 C 133.366 70.066,129.579 70.445,126.027 70.901 C 114.758 72.347,96.226 72.327,77.495 70.849 C 75.020 70.654,71.409 70.386,69.472 70.254 C 67.534 70.122,64.979 69.763,63.792 69.456 C 61.134 68.767,51.941 67.329,50.158 67.323 C 49.438 67.321,48.363 66.973,47.769 66.550 C 47.175 66.127,44.958 65.406,42.843 64.948 C 40.727 64.489,38.544 63.934,37.991 63.714 C 37.439 63.493,36.458 63.172,35.812 63.001 C 28.508 61.059,25.814 60.209,24.433 59.409 C 23.586 58.919,19.374 57.373,19.374 57.552 C 19.374 57.558,18.999 57.776,18.542 58.037 M21.790 59.486 C 22.258 59.489,23.178 59.944,23.835 60.496 C 24.604 61.143,26.185 61.774,28.268 62.264 C 30.049 62.683,32.387 63.369,33.464 63.786 C 34.540 64.204,37.358 65.014,39.726 65.586 C 42.094 66.157,45.440 67.031,47.162 67.528 C 51.233 68.701,55.205 69.459,62.427 70.442 C 65.656 70.881,69.795 71.493,71.624 71.804 C 80.065 73.234,121.183 73.728,126.419 72.462 C 127.387 72.228,131.614 71.584,135.811 71.031 C 143.991 69.953,152.357 68.348,157.970 66.781 C 159.883 66.247,162.576 65.609,163.956 65.362 C 165.335 65.116,167.536 64.500,168.848 63.994 C 170.160 63.489,172.244 62.873,173.479 62.626 C 174.802 62.361,176.495 61.647,177.600 60.887 C 180.528 58.872,185.051 58.968,185.715 61.059 C 186.091 62.245,185.554 87.649,185.084 90.900 C 184.647 93.922,184.639 93.938,182.680 95.376 C 180.010 97.336,172.855 100.768,169.816 101.547 C 168.450 101.897,166.799 102.498,166.148 102.882 C 165.497 103.266,163.205 103.898,161.054 104.287 C 158.903 104.677,155.632 105.406,153.786 105.909 C 144.240 108.508,124.877 110.559,105.651 111.007 C 92.997 111.302,79.338 110.629,68.689 109.187 C 65.675 108.778,62.065 108.333,60.665 108.197 C 57.803 107.919,49.992 106.296,47.442 105.449 C 46.520 105.143,45.089 104.892,44.263 104.892 C 42.560 104.892,40.249 104.169,37.356 102.729 C 36.268 102.188,34.365 101.580,33.129 101.379 C 31.892 101.178,29.964 100.492,28.845 99.855 C 27.726 99.219,25.819 98.412,24.608 98.063 C 23.397 97.714,22.076 97.064,21.672 96.618 C 21.269 96.172,20.272 95.466,19.456 95.050 C 17.267 93.933,17.243 93.734,17.207 76.614 L 17.174 60.861 18.234 59.950 C 18.924 59.356,19.580 59.116,20.116 59.260 C 20.569 59.381,21.322 59.483,21.790 59.486 M332.189 95.353 C 331.599 95.662,331.115 96.086,331.115 96.294 C 331.115 96.503,330.818 96.673,330.456 96.673 C 328.855 96.673,324.563 98.033,323.585 98.851 C 322.993 99.346,321.504 99.941,320.258 100.181 C 316.019 100.996,314.481 101.414,312.837 102.201 C 311.821 102.686,309.656 103.141,307.176 103.389 C 301.887 103.919,299.290 104.895,298.006 106.835 L 297.025 108.317 298.255 110.140 C 299.478 111.952,302.382 113.804,304.983 114.431 C 305.571 114.572,306.651 115.214,307.383 115.857 C 308.115 116.500,308.891 117.025,309.106 117.025 C 309.322 117.025,309.773 117.444,310.109 117.956 C 310.444 118.468,311.213 119.010,311.817 119.162 C 312.421 119.314,313.622 120.175,314.485 121.076 C 315.349 121.977,316.934 123.304,318.008 124.024 C 320.411 125.636,323.237 128.081,326.992 131.800 C 328.568 133.361,330.039 134.638,330.261 134.638 C 330.482 134.638,331.192 135.166,331.838 135.812 C 336.178 140.152,337.145 133.867,336.447 105.871 C 336.224 96.900,335.001 93.880,332.189 95.353 M334.478 98.475 C 335.978 102.401,335.439 133.855,333.856 134.833 C 333.386 135.124,329.057 132.505,328.509 131.599 C 328.125 130.964,324.439 127.681,316.830 121.197 C 315.969 120.463,313.767 118.849,311.937 117.610 C 310.108 116.371,308.032 114.852,307.325 114.234 C 306.618 113.617,305.756 113.112,305.411 113.112 C 303.432 113.112,299.804 109.989,299.804 108.285 C 299.804 106.962,303.363 105.106,306.654 104.713 C 309.934 104.322,312.908 103.553,315.656 102.386 C 316.947 101.837,318.456 101.384,319.009 101.379 C 320.682 101.364,324.000 100.223,325.928 99.001 C 326.928 98.366,328.196 97.833,328.746 97.816 C 329.296 97.799,330.538 97.557,331.507 97.280 C 332.476 97.002,333.386 96.752,333.529 96.724 C 333.673 96.696,334.100 97.484,334.478 98.475 M218.787 109.549 C 216.096 109.906,213.530 110.402,213.085 110.652 C 212.639 110.902,210.349 111.308,207.996 111.555 C 205.490 111.818,202.583 112.409,200.978 112.981 C 199.472 113.518,196.667 114.372,194.747 114.880 C 192.827 115.388,190.756 116.172,190.145 116.624 C 189.535 117.075,188.025 117.631,186.790 117.860 C 184.358 118.309,183.404 118.704,182.192 119.765 C 181.761 120.141,180.222 120.837,178.771 121.312 C 177.321 121.786,176.043 122.322,175.932 122.502 C 175.820 122.681,173.699 123.843,171.217 125.082 C 168.736 126.321,166.315 127.722,165.838 128.194 C 165.361 128.666,164.541 129.187,164.015 129.352 C 163.490 129.516,162.433 130.236,161.667 130.952 C 159.674 132.815,156.972 134.885,155.382 135.766 C 154.628 136.183,152.893 137.597,151.526 138.908 C 150.158 140.219,148.918 141.292,148.769 141.292 C 148.420 141.292,141.292 148.181,141.292 148.519 C 141.292 148.660,140.132 149.946,138.716 151.377 C 137.299 152.808,135.862 154.514,135.524 155.169 C 134.674 156.813,133.524 158.420,131.828 160.333 C 131.036 161.226,130.026 162.667,129.583 163.535 C 129.141 164.403,128.605 165.221,128.392 165.352 C 128.180 165.483,127.644 166.410,127.201 167.411 C 126.758 168.413,125.970 169.791,125.449 170.473 C 124.929 171.155,124.380 172.221,124.230 172.843 C 124.079 173.464,123.381 174.853,122.677 175.930 C 121.974 177.006,121.103 178.911,120.742 180.163 C 120.381 181.415,119.851 182.529,119.565 182.639 C 118.876 182.903,117.952 185.267,117.592 187.686 C 117.420 188.839,117.020 189.827,116.609 190.117 C 115.743 190.728,114.826 193.194,114.279 196.383 C 114.048 197.730,113.074 201.044,112.115 203.747 C 110.879 207.232,110.372 209.272,110.372 210.762 C 110.372 211.917,110.004 215.648,109.554 219.053 C 108.224 229.114,108.750 242.183,110.969 254.207 C 111.287 255.930,111.546 257.885,111.546 258.552 C 111.546 260.132,112.247 262.116,112.893 262.364 C 113.400 262.558,114.041 265.515,114.488 269.721 C 114.672 271.451,115.001 272.255,116.011 273.439 C 116.756 274.314,117.415 275.611,117.573 276.517 C 118.036 279.165,118.977 281.675,119.781 282.402 C 120.203 282.784,120.548 283.572,120.548 284.153 C 120.548 284.735,121.474 287.041,122.606 289.279 C 124.455 292.932,125.788 295.102,131.757 304.179 C 132.702 305.617,134.191 307.360,135.066 308.053 C 135.941 308.746,137.039 310.117,137.507 311.099 C 137.985 312.106,138.954 313.286,139.726 313.803 C 140.479 314.307,141.510 315.415,142.016 316.264 C 142.522 317.113,143.159 317.808,143.430 317.808 C 143.702 317.808,144.842 319.044,145.965 320.554 C 147.088 322.064,148.566 323.582,149.248 323.927 C 149.931 324.272,151.458 325.385,152.642 326.400 C 153.826 327.415,155.587 328.758,156.556 329.383 C 157.524 330.009,158.456 330.739,158.626 331.006 C 158.796 331.273,159.694 331.937,160.623 332.481 C 161.552 333.025,162.641 333.835,163.044 334.280 C 163.447 334.725,164.688 335.521,165.801 336.047 C 166.915 336.574,168.048 337.272,168.319 337.599 C 168.590 337.926,170.853 339.184,173.349 340.396 C 175.845 341.608,178.347 342.917,178.911 343.305 C 179.474 343.693,181.236 344.476,182.825 345.045 C 184.414 345.614,185.890 346.213,186.106 346.377 C 186.321 346.541,187.906 347.155,189.628 347.742 C 191.350 348.329,192.935 348.936,193.151 349.091 C 193.839 349.588,196.578 350.230,200.000 350.697 C 201.891 350.955,204.099 351.543,205.116 352.059 C 209.377 354.223,220.969 355.011,240.313 354.453 C 251.107 354.141,256.509 353.433,260.078 351.860 C 260.939 351.481,262.678 351.046,263.942 350.894 C 266.597 350.574,269.150 349.746,270.080 348.904 C 270.436 348.582,271.975 348.058,273.498 347.741 C 276.672 347.079,278.221 346.543,279.060 345.816 C 279.383 345.536,280.705 344.920,281.996 344.447 C 283.288 343.975,284.697 343.371,285.127 343.105 C 285.558 342.839,286.661 342.381,287.578 342.088 C 288.495 341.795,289.932 340.967,290.771 340.249 C 291.610 339.531,292.493 338.943,292.732 338.943 C 293.827 338.943,298.557 336.235,300.078 334.736 C 301.006 333.821,301.935 333.072,302.142 333.072 C 302.349 333.072,303.410 332.280,304.501 331.311 C 305.592 330.342,306.644 329.550,306.839 329.550 C 307.034 329.550,307.982 328.889,308.946 328.082 C 309.910 327.275,311.418 326.096,312.298 325.462 C 313.178 324.827,314.294 323.728,314.777 323.018 C 315.260 322.308,315.808 321.726,315.995 321.725 C 316.298 321.722,319.367 318.677,321.569 316.195 C 322.023 315.683,322.816 314.892,323.331 314.436 C 324.496 313.405,326.201 311.404,327.984 308.973 C 328.738 307.947,330.079 306.300,330.964 305.315 C 331.850 304.329,332.788 302.862,333.049 302.055 C 333.311 301.248,333.731 300.582,333.983 300.575 C 334.559 300.560,337.769 296.365,337.769 295.627 C 337.769 294.768,339.556 291.467,340.467 290.644 C 340.920 290.234,341.292 289.736,341.292 289.537 C 341.292 289.338,341.893 287.912,342.628 286.369 C 343.363 284.825,344.189 282.769,344.464 281.800 C 344.738 280.832,345.355 279.559,345.834 278.972 C 346.313 278.385,346.801 277.417,346.919 276.820 C 347.037 276.222,347.340 274.627,347.593 273.274 C 347.896 271.654,348.435 270.333,349.173 269.404 C 349.789 268.629,350.294 267.970,350.294 267.940 C 350.294 266.161,351.408 260.465,352.279 257.796 C 353.817 253.083,354.181 248.898,354.246 235.225 C 354.332 216.862,353.660 208.876,351.802 206.206 C 351.319 205.511,350.937 203.838,350.641 201.118 C 350.172 196.806,349.960 196.064,348.753 194.521 C 348.290 193.929,347.761 192.190,347.414 190.121 C 347.078 188.117,346.323 185.605,345.591 184.055 C 344.904 182.600,343.676 180.000,342.862 178.278 C 342.048 176.556,341.172 174.592,340.914 173.913 C 340.657 173.235,340.025 172.285,339.510 171.801 C 338.996 171.318,338.370 170.302,338.120 169.544 C 337.382 167.309,336.230 165.638,334.830 164.773 C 333.983 164.249,333.426 163.537,333.255 162.759 C 333.110 162.097,332.427 160.915,331.739 160.132 C 331.050 159.349,329.882 157.740,329.144 156.556 C 328.405 155.372,327.013 153.553,326.049 152.513 C 325.085 151.474,323.938 150.046,323.499 149.340 C 323.060 148.635,321.820 147.279,320.744 146.327 C 317.363 143.339,316.265 142.327,314.170 140.275 C 313.050 139.178,311.562 137.890,310.864 137.413 C 310.166 136.936,308.581 135.678,307.341 134.617 C 306.102 133.556,304.900 132.686,304.669 132.684 C 304.439 132.683,303.872 132.245,303.409 131.712 C 302.945 131.180,301.976 130.497,301.255 130.196 C 300.533 129.894,299.311 129.093,298.538 128.414 C 297.765 127.735,295.576 126.413,293.674 125.475 C 291.772 124.537,289.795 123.400,289.281 122.947 C 288.767 122.494,287.094 121.734,285.563 121.258 C 284.032 120.782,282.515 120.177,282.192 119.914 C 281.449 119.309,278.111 117.997,276.336 117.612 C 275.591 117.451,274.510 116.969,273.933 116.543 C 273.356 116.116,271.324 115.358,269.416 114.857 C 263.566 113.322,262.852 113.104,261.809 112.529 C 261.255 112.223,259.581 111.865,258.091 111.732 C 256.601 111.599,253.532 111.068,251.272 110.552 C 243.194 108.706,228.553 108.254,218.787 109.549 M245.988 111.279 C 247.926 111.598,251.769 112.078,254.530 112.346 C 258.601 112.742,259.799 113.003,260.872 113.731 C 261.750 114.327,263.288 114.783,265.442 115.088 C 267.367 115.360,269.645 115.998,271.037 116.655 C 272.329 117.265,274.547 118.112,275.966 118.537 C 277.385 118.962,279.146 119.680,279.880 120.131 C 280.613 120.583,282.313 121.296,283.657 121.715 C 285.002 122.135,287.073 123.099,288.260 123.859 C 289.447 124.618,291.809 125.939,293.508 126.793 C 295.208 127.648,296.659 128.497,296.734 128.681 C 296.808 128.864,298.102 129.810,299.609 130.783 C 304.236 133.769,313.812 141.310,316.438 144.036 C 316.869 144.483,318.425 146.024,319.897 147.461 C 321.368 148.898,322.990 150.783,323.501 151.651 C 324.011 152.519,324.745 153.425,325.131 153.664 C 325.516 153.903,326.525 155.135,327.372 156.403 C 328.219 157.671,329.487 159.325,330.190 160.078 C 330.893 160.832,331.757 162.153,332.110 163.014 C 332.462 163.875,333.380 165.233,334.150 166.032 C 335.585 167.520,338.446 172.388,340.543 176.908 C 341.192 178.307,342.419 180.795,343.269 182.436 C 344.119 184.077,344.814 185.713,344.814 186.072 C 344.814 186.431,345.167 187.416,345.598 188.261 C 346.030 189.106,346.568 190.728,346.795 191.866 C 347.022 193.003,347.719 195.078,348.345 196.477 C 349.046 198.047,349.711 200.550,350.080 203.011 C 350.409 205.205,350.957 207.820,351.297 208.822 C 353.946 216.624,354.197 243.263,351.719 253.694 C 351.192 255.914,350.477 259.457,350.131 261.568 C 349.770 263.771,349.086 266.227,348.527 267.330 C 347.991 268.388,347.199 270.767,346.768 272.616 C 346.337 274.465,345.368 277.168,344.616 278.621 C 343.864 280.075,343.249 281.518,343.249 281.829 C 343.249 282.484,339.912 289.148,339.148 290.020 C 338.865 290.342,337.929 291.960,337.068 293.613 C 336.207 295.267,335.076 297.079,334.555 297.641 C 334.033 298.203,333.015 299.818,332.290 301.230 C 331.566 302.642,330.731 303.890,330.434 304.004 C 330.136 304.118,329.332 305.040,328.645 306.052 C 325.053 311.349,309.348 327.067,305.836 328.881 C 305.170 329.224,304.202 329.964,303.683 330.524 C 303.164 331.085,302.035 331.911,301.174 332.361 C 300.313 332.810,299.028 333.684,298.318 334.304 C 297.608 334.923,295.759 336.063,294.208 336.838 C 292.658 337.612,290.861 338.642,290.215 339.126 C 288.663 340.290,285.351 341.952,282.279 343.108 C 280.912 343.622,278.923 344.485,277.858 345.024 C 276.793 345.564,274.376 346.419,272.487 346.925 C 270.597 347.430,268.354 348.197,267.500 348.629 C 266.647 349.060,263.924 349.797,261.448 350.266 C 258.973 350.735,255.362 351.594,253.425 352.174 L 249.902 353.229 231.507 353.215 C 212.290 353.200,211.038 353.107,207.216 351.417 C 206.327 351.023,203.591 350.360,201.136 349.944 C 198.682 349.527,195.616 348.735,194.325 348.184 C 193.033 347.632,191.733 347.177,191.436 347.172 C 191.138 347.167,190.329 346.813,189.639 346.386 C 188.948 345.959,187.216 345.249,185.789 344.809 C 183.146 343.992,172.801 338.875,169.297 336.650 C 168.233 335.974,167.187 335.421,166.974 335.421 C 166.761 335.421,166.187 335.045,165.697 334.585 C 165.208 334.126,163.941 333.201,162.880 332.531 C 160.568 331.068,157.552 328.768,155.058 326.565 C 154.052 325.676,152.189 324.225,150.918 323.339 C 149.647 322.453,148.042 320.889,147.351 319.863 C 146.660 318.837,145.632 317.750,145.066 317.447 C 144.115 316.938,140.316 312.686,138.261 309.830 C 137.779 309.159,136.960 308.258,136.443 307.828 C 135.925 307.397,134.171 305.020,132.544 302.544 C 130.917 300.068,129.181 297.551,128.687 296.949 C 128.193 296.348,127.722 295.643,127.641 295.384 C 127.560 295.124,126.917 293.943,126.213 292.759 C 124.043 289.108,122.310 285.632,121.334 282.975 C 120.820 281.575,120.092 279.990,119.717 279.452 C 119.342 278.914,118.662 277.191,118.206 275.624 C 117.750 274.057,117.053 272.208,116.657 271.515 C 115.910 270.204,115.289 267.734,114.866 264.384 C 114.731 263.307,114.210 261.810,113.710 261.057 C 112.974 259.947,112.680 258.608,112.162 254.012 C 111.811 250.890,111.255 246.568,110.927 244.407 C 109.486 234.904,110.826 212.814,113.314 205.088 C 114.041 202.828,114.757 200.098,114.904 199.022 C 115.158 197.157,116.418 193.201,117.022 192.368 C 117.178 192.153,117.700 190.494,118.181 188.682 C 118.663 186.870,119.389 184.932,119.796 184.376 C 120.202 183.821,120.995 182.228,121.557 180.837 C 122.119 179.446,122.914 177.881,123.325 177.359 C 123.735 176.838,124.070 176.245,124.070 176.043 C 124.070 175.840,124.814 174.411,125.722 172.867 C 126.631 171.322,127.644 169.577,127.973 168.989 C 129.902 165.542,131.356 163.221,132.452 161.840 C 133.135 160.978,134.555 159.041,135.607 157.534 C 138.586 153.266,145.996 145.316,151.176 140.831 C 155.075 137.454,156.621 136.204,156.897 136.204 C 157.059 136.204,157.532 135.890,157.950 135.507 C 161.461 132.286,175.791 123.521,180.428 121.759 C 181.562 121.328,183.133 120.550,183.919 120.030 C 184.705 119.509,186.288 118.882,187.435 118.636 C 188.583 118.390,190.724 117.661,192.193 117.016 C 193.662 116.371,196.240 115.566,197.922 115.226 C 199.603 114.886,202.482 114.111,204.319 113.504 C 206.717 112.712,209.477 112.213,214.103 111.737 C 217.648 111.372,221.429 110.928,222.505 110.750 C 225.554 110.245,241.957 110.614,245.988 111.279 M17.541 115.273 C 15.153 117.006,15.095 117.143,15.876 119.190 C 16.475 120.756,16.526 122.315,16.357 133.750 C 16.103 150.930,16.239 151.437,21.802 154.055 C 23.353 154.785,24.765 155.382,24.940 155.382 C 25.115 155.382,25.912 155.826,26.711 156.369 C 27.510 156.912,29.356 157.648,30.814 158.006 C 32.271 158.363,34.371 159.076,35.480 159.590 C 36.589 160.104,39.231 160.880,41.351 161.315 C 43.471 161.750,45.914 162.415,46.781 162.792 C 47.647 163.170,49.585 163.695,51.086 163.959 C 52.588 164.223,54.873 164.681,56.164 164.977 C 59.189 165.670,70.581 167.001,76.125 167.309 C 78.493 167.440,82.456 167.714,84.932 167.918 C 102.938 169.398,108.078 169.093,109.914 166.437 C 110.274 165.918,111.295 164.645,112.184 163.609 C 113.619 161.935,116.243 157.144,116.243 156.197 C 116.243 156.000,116.783 155.340,117.444 154.730 C 118.104 154.120,118.995 152.948,119.422 152.126 C 119.850 151.303,121.174 149.571,122.365 148.276 C 123.556 146.981,124.776 145.333,125.076 144.613 C 125.377 143.894,125.972 143.195,126.400 143.059 C 126.827 142.923,127.566 142.120,128.042 141.273 C 128.517 140.427,129.234 139.631,129.634 139.504 C 130.035 139.377,130.824 138.538,131.389 137.640 C 131.953 136.742,133.454 135.005,134.724 133.778 C 138.396 130.231,139.029 129.115,138.168 127.699 C 137.374 126.394,135.380 125.413,134.351 125.821 C 133.971 125.972,131.018 126.262,127.789 126.465 C 98.632 128.300,73.517 127.814,62.818 125.208 C 59.747 124.460,56.564 123.984,53.620 123.833 C 49.916 123.642,48.912 123.455,47.950 122.776 C 47.169 122.226,45.371 121.728,42.548 121.279 C 40.221 120.909,37.665 120.269,36.869 119.857 C 36.072 119.446,33.748 118.702,31.703 118.205 C 29.658 117.708,27.520 116.977,26.952 116.581 C 26.384 116.185,24.722 115.583,23.258 115.243 C 21.794 114.904,20.316 114.476,19.974 114.293 C 19.534 114.057,18.820 114.345,17.541 115.273 M24.013 116.765 C 24.906 117.283,27.476 118.177,29.724 118.751 C 31.973 119.326,33.998 119.942,34.225 120.120 C 34.909 120.657,38.326 121.647,42.358 122.475 C 44.452 122.906,46.653 123.509,47.251 123.816 C 47.848 124.123,50.160 124.571,52.388 124.812 C 54.617 125.053,58.315 125.679,60.607 126.202 C 71.710 128.740,103.677 129.907,120.548 128.391 C 131.075 127.446,134.734 127.413,135.767 128.255 L 136.700 129.016 135.679 130.555 C 135.117 131.401,133.581 133.223,132.266 134.603 C 130.951 135.983,128.922 138.306,127.758 139.765 C 126.593 141.224,125.323 142.649,124.936 142.931 C 124.548 143.213,123.848 144.072,123.380 144.840 C 122.913 145.607,122.151 146.576,121.687 146.992 C 121.224 147.409,120.132 148.806,119.261 150.098 C 118.391 151.389,117.151 153.057,116.506 153.804 C 115.861 154.551,114.846 156.236,114.250 157.549 C 113.655 158.862,112.583 160.665,111.868 161.556 C 111.153 162.446,110.106 163.858,109.541 164.693 C 107.918 167.093,106.638 167.294,94.973 166.984 C 84.434 166.704,71.763 165.832,68.885 165.190 C 67.916 164.973,65.010 164.611,62.427 164.384 C 57.236 163.928,49.244 162.444,47.789 161.665 C 47.276 161.390,45.646 161.013,44.169 160.828 C 42.692 160.642,40.559 160.055,39.430 159.522 C 38.301 158.990,35.881 158.214,34.051 157.800 C 32.221 157.385,29.693 156.495,28.434 155.822 C 27.174 155.149,25.870 154.599,25.535 154.599 C 25.201 154.599,24.299 154.114,23.530 153.523 C 22.762 152.931,21.443 152.182,20.598 151.859 C 17.349 150.617,17.442 151.136,17.221 133.033 C 17.030 117.394,17.045 116.983,17.808 116.199 C 18.826 115.154,21.683 115.415,24.013 116.765 M227.738 149.881 C 225.106 151.534,224.279 152.892,222.923 157.786 C 222.178 160.475,220.544 162.066,217.775 162.796 C 213.161 164.012,210.870 164.810,208.357 166.078 C 204.133 168.209,198.115 173.288,194.912 177.425 C 193.943 178.676,192.579 180.370,191.879 181.188 C 190.627 182.655,189.432 185.346,189.432 186.702 C 189.432 187.084,188.922 188.366,188.299 189.551 C 185.645 194.597,185.444 209.964,187.993 212.941 C 188.833 213.921,189.267 214.911,189.818 217.093 C 190.044 217.992,190.920 219.665,191.764 220.812 C 192.607 221.958,193.869 223.689,194.567 224.658 C 196.493 227.331,202.321 232.754,204.305 233.719 C 205.274 234.190,206.716 235.152,207.511 235.856 C 208.336 236.588,209.595 237.250,210.446 237.399 C 211.266 237.543,212.642 238.062,213.503 238.552 C 214.999 239.405,216.163 239.800,219.863 240.715 C 223.086 241.512,223.069 241.401,223.220 262.310 C 223.353 280.769,223.291 281.702,221.812 283.280 C 220.387 284.802,216.176 283.794,213.110 281.197 C 210.770 279.216,207.045 275.434,207.045 275.039 C 207.045 274.873,206.470 273.901,205.768 272.880 C 205.065 271.858,204.242 270.233,203.939 269.269 C 202.818 265.703,199.688 262.466,196.779 261.861 C 187.635 259.963,182.466 270.487,188.551 278.612 C 189.091 279.334,189.694 280.654,189.890 281.547 C 190.086 282.440,190.743 283.699,191.350 284.344 C 199.103 292.594,200.593 293.862,206.849 297.525 C 209.753 299.225,211.650 299.966,214.677 300.585 C 221.126 301.903,222.368 302.874,223.336 307.355 C 225.349 316.669,234.580 318.634,239.810 310.862 C 240.136 310.378,240.635 308.643,240.919 307.007 C 241.667 302.698,242.294 302.141,247.657 301.019 C 250.910 300.338,254.837 298.728,255.377 297.855 C 255.513 297.635,256.437 297.251,257.432 297.000 C 258.478 296.737,259.873 295.972,260.745 295.185 C 261.573 294.437,262.754 293.541,263.368 293.194 C 264.966 292.292,271.924 284.691,272.879 282.803 C 273.321 281.929,274.031 280.720,274.456 280.117 C 279.060 273.583,280.495 261.105,277.503 253.620 C 277.029 252.436,276.213 250.330,275.690 248.939 C 275.166 247.548,274.442 245.963,274.082 245.416 C 273.722 244.870,272.846 243.310,272.136 241.951 C 270.896 239.577,264.343 232.485,263.390 232.485 C 263.173 232.485,262.220 231.770,261.272 230.896 C 258.936 228.742,253.911 226.381,248.810 225.039 C 240.316 222.805,240.898 224.505,240.910 201.957 C 240.921 181.817,240.916 181.864,242.870 180.933 C 246.245 179.323,257.422 187.023,258.586 191.759 C 261.466 203.474,272.751 206.762,277.579 197.291 C 278.658 195.175,278.490 192.383,277.116 189.618 C 276.477 188.332,275.949 186.894,275.942 186.422 C 275.927 185.357,274.562 182.920,273.220 181.562 C 272.665 181.000,271.595 179.639,270.841 178.538 C 268.210 174.691,259.854 167.769,256.349 166.532 C 255.548 166.250,253.927 165.562,252.748 165.004 C 250.930 164.144,247.871 163.264,244.388 162.600 C 243.939 162.514,243.120 162.089,242.569 161.655 C 241.576 160.874,241.450 160.493,240.317 154.882 C 239.308 149.883,232.221 147.065,227.738 149.881 M234.954 150.824 C 237.343 151.822,239.036 153.819,239.326 155.980 C 240.183 162.382,241.133 163.607,245.555 164.010 C 248.281 164.258,249.289 164.530,250.441 165.329 C 251.239 165.882,252.785 166.599,253.875 166.923 C 254.966 167.247,256.543 168.065,257.381 168.740 C 258.219 169.415,259.697 170.323,260.665 170.756 C 262.942 171.774,268.371 176.861,269.800 179.315 C 270.412 180.365,271.248 181.404,271.660 181.624 C 272.071 181.844,272.407 182.205,272.407 182.427 C 272.407 182.649,272.833 183.392,273.353 184.077 C 273.873 184.762,274.427 186.020,274.585 186.872 C 274.744 187.723,275.291 189.335,275.803 190.452 C 278.736 196.858,273.083 203.425,266.727 200.998 C 265.761 200.629,264.971 200.179,264.971 200.000 C 264.971 199.820,264.366 199.299,263.628 198.843 C 262.494 198.142,262.153 197.567,261.433 195.143 C 260.965 193.565,260.160 191.783,259.645 191.183 C 259.130 190.584,258.708 189.954,258.708 189.783 C 258.708 189.176,256.310 185.929,255.266 185.123 C 246.469 178.326,242.451 177.191,240.420 180.931 C 239.379 182.847,239.387 220.259,240.428 222.200 C 241.496 224.191,242.610 224.985,244.969 225.437 C 248.636 226.139,251.786 227.046,253.229 227.816 C 253.982 228.219,255.656 229.002,256.947 229.557 C 258.239 230.112,260.000 231.231,260.861 232.044 C 261.722 232.856,262.925 233.829,263.533 234.206 C 264.142 234.583,264.987 235.481,265.412 236.201 C 265.838 236.921,266.697 237.689,267.323 237.908 C 268.045 238.159,268.660 238.778,269.005 239.602 C 269.304 240.316,270.012 241.450,270.579 242.122 C 271.145 242.793,271.977 244.202,272.427 245.253 C 272.877 246.303,273.473 247.427,273.750 247.750 C 274.663 248.814,277.109 256.666,277.552 259.956 C 278.449 266.624,276.486 275.626,273.385 279.061 C 272.899 279.599,272.281 280.728,272.012 281.569 C 271.743 282.411,270.973 283.690,270.301 284.412 C 266.760 288.219,261.911 292.889,261.006 293.364 C 260.440 293.661,259.880 294.157,259.762 294.467 C 259.643 294.776,258.873 295.245,258.051 295.509 C 256.310 296.068,253.976 297.152,252.105 298.270 C 251.379 298.704,249.132 299.399,247.111 299.815 C 241.120 301.048,240.334 301.808,239.501 307.183 C 239.192 309.177,238.818 310.258,238.283 310.705 C 237.859 311.060,237.261 311.826,236.955 312.408 C 236.010 314.203,231.343 314.929,228.894 313.663 C 226.357 312.351,225.314 310.522,224.696 306.301 C 224.070 302.033,222.351 300.789,214.873 299.189 C 211.822 298.537,206.885 296.366,203.937 294.380 C 203.386 294.009,202.288 293.371,201.497 292.963 C 200.706 292.555,199.881 291.831,199.663 291.353 C 199.446 290.876,198.728 290.166,198.068 289.777 C 197.409 289.387,196.869 288.928,196.869 288.756 C 196.869 288.465,195.774 287.184,192.651 283.822 C 191.946 283.063,191.260 281.989,191.128 281.436 C 190.788 280.016,189.477 277.445,188.610 276.496 C 182.810 270.150,191.607 259.094,198.433 264.152 C 200.715 265.843,202.052 267.936,204.128 273.063 C 204.492 273.962,205.297 275.184,205.917 275.778 C 206.538 276.373,207.045 277.084,207.045 277.358 C 207.045 277.633,208.146 278.760,209.491 279.862 C 210.837 280.964,212.554 282.447,213.307 283.158 C 218.625 288.175,225.778 284.613,224.884 277.393 C 224.744 276.265,224.584 268.033,224.528 259.100 C 224.408 240.096,224.510 240.492,219.362 239.176 C 218.507 238.957,216.751 238.435,215.460 238.015 C 214.168 237.595,212.356 237.051,211.433 236.805 C 210.476 236.551,209.316 235.866,208.734 235.213 C 208.172 234.583,207.342 233.951,206.890 233.810 C 204.554 233.079,197.641 227.067,195.996 224.335 C 195.390 223.328,194.108 221.448,193.147 220.157 C 191.208 217.552,189.846 215.026,189.832 214.015 C 189.828 213.650,189.483 212.770,189.067 212.058 C 186.464 207.605,186.450 196.909,189.041 191.278 C 189.458 190.371,189.993 188.618,190.230 187.383 C 190.532 185.807,191.061 184.658,192.003 183.530 C 192.742 182.645,194.183 180.662,195.206 179.121 C 196.228 177.581,197.417 176.028,197.847 175.671 C 198.278 175.314,199.335 174.363,200.196 173.559 C 201.057 172.754,202.642 171.525,203.718 170.827 C 204.795 170.129,206.361 169.010,207.199 168.339 C 208.036 167.669,209.836 166.776,211.197 166.356 C 212.559 165.935,214.198 165.319,214.840 164.987 C 215.483 164.655,216.337 164.384,216.739 164.384 C 220.365 164.384,223.516 162.053,224.280 158.807 C 226.038 151.327,229.665 148.614,234.954 150.824 M18.322 169.989 C 15.044 176.455,15.151 176.106,15.872 177.995 C 16.362 179.280,16.466 180.359,16.285 182.319 C 16.153 183.756,16.085 185.460,16.136 186.106 C 16.261 187.720,16.236 195.195,16.091 199.161 C 15.830 206.337,17.260 208.885,22.694 210.929 C 24.521 211.615,26.282 212.413,26.608 212.702 C 27.344 213.351,30.372 214.385,32.570 214.736 C 33.478 214.881,34.546 215.304,34.945 215.675 C 35.893 216.559,39.386 217.486,43.053 217.828 C 45.240 218.032,46.252 218.323,47.023 218.971 C 47.757 219.587,48.791 219.908,50.584 220.076 C 51.973 220.206,54.678 220.660,56.594 221.085 C 62.191 222.327,74.826 223.763,82.583 224.040 C 84.198 224.097,86.015 224.348,86.621 224.597 C 91.727 226.693,93.780 222.497,95.881 205.675 C 96.123 203.738,96.746 200.910,97.264 199.392 C 97.783 197.874,98.411 195.321,98.659 193.720 C 98.974 191.691,99.394 190.473,100.045 189.699 C 101.172 188.360,101.179 188.224,100.228 186.384 C 99.010 184.026,98.363 183.825,91.781 183.760 C 81.873 183.663,73.564 183.142,69.667 182.376 C 67.622 181.973,62.255 181.101,57.740 180.437 C 53.224 179.774,49.149 178.981,48.683 178.676 C 48.217 178.370,46.892 178.015,45.738 177.887 C 41.122 177.372,38.477 176.777,36.966 175.914 C 35.537 175.099,33.115 174.333,27.166 172.818 C 26.070 172.539,24.749 172.045,24.230 171.721 C 23.712 171.396,22.835 171.026,22.281 170.898 C 21.727 170.770,20.841 170.057,20.312 169.314 L 19.350 167.962 18.322 169.989 M21.722 171.914 C 22.368 172.137,23.425 172.708,24.070 173.183 C 24.876 173.776,26.100 174.134,27.969 174.323 C 29.744 174.502,31.564 175.014,33.193 175.792 C 36.544 177.391,37.449 177.634,42.407 178.263 C 45.706 178.682,46.851 178.988,47.537 179.632 C 48.023 180.088,49.018 180.542,49.748 180.639 C 50.479 180.737,53.190 181.075,55.773 181.390 C 58.356 181.704,61.529 182.233,62.825 182.565 C 68.260 183.958,84.672 185.191,96.961 185.130 C 98.122 185.124,99.510 188.108,98.901 189.299 C 98.587 189.911,98.204 191.204,98.048 192.172 C 97.892 193.141,97.333 195.166,96.807 196.673 C 96.280 198.180,95.416 202.055,94.887 205.284 C 94.358 208.513,93.668 212.299,93.354 213.699 C 93.040 215.098,92.588 217.262,92.348 218.508 C 91.497 222.947,88.576 223.829,78.865 222.578 C 77.358 222.384,75.459 222.252,74.645 222.284 C 73.830 222.316,72.157 222.076,70.926 221.749 C 69.696 221.423,65.342 220.789,61.252 220.341 C 52.205 219.349,49.032 218.784,47.750 217.934 C 47.208 217.575,45.219 217.100,43.294 216.870 C 41.110 216.609,39.306 216.152,38.441 215.642 C 37.685 215.196,35.587 214.479,33.781 214.050 C 31.974 213.621,29.314 212.681,27.870 211.961 C 26.426 211.241,23.836 209.966,22.114 209.126 C 17.044 206.656,17.221 207.382,17.221 189.128 C 17.221 178.747,17.357 173.853,17.663 173.262 C 18.442 171.754,19.299 170.999,19.936 171.259 C 20.273 171.396,21.076 171.691,21.722 171.914 M216.700 179.846 C 215.229 180.369,213.380 181.337,212.590 181.998 C 208.689 185.260,207.730 186.220,207.018 187.573 C 206.594 188.381,206.089 189.041,205.898 189.041 C 203.646 189.041,201.572 202.711,203.145 207.186 C 206.748 217.438,221.697 225.740,224.287 218.928 C 224.522 218.310,224.701 211.669,224.734 202.392 C 224.764 193.865,224.793 185.920,224.798 184.736 C 224.821 179.879,221.775 178.040,216.700 179.846 M221.729 181.449 C 223.233 182.435,223.308 183.529,223.096 201.306 L 222.896 218.073 221.798 219.017 C 219.730 220.795,215.768 219.783,212.524 216.649 C 211.556 215.713,210.072 214.486,209.227 213.922 C 207.772 212.951,206.873 211.607,204.628 207.045 C 203.400 204.550,203.410 199.365,204.650 195.333 C 207.539 185.939,216.930 178.305,221.729 181.449 M18.098 226.712 C 16.363 228.565,16.310 229.142,16.403 245.205 C 16.497 261.407,16.631 262.717,18.354 264.308 C 20.227 266.038,31.497 271.233,33.377 271.233 C 33.662 271.233,34.084 271.423,34.316 271.655 C 34.548 271.887,35.332 272.231,36.058 272.421 C 36.784 272.610,39.667 273.399,42.466 274.173 C 45.264 274.947,50.020 275.923,53.033 276.342 C 56.047 276.760,59.922 277.368,61.644 277.694 C 68.705 279.027,72.377 279.476,79.357 279.860 C 83.392 280.082,88.982 280.415,91.781 280.599 C 101.486 281.240,101.637 280.667,96.556 262.427 C 96.017 260.489,95.457 257.320,95.313 255.385 C 95.169 253.449,94.869 250.983,94.645 249.905 C 94.422 248.827,94.072 247.153,93.869 246.184 C 93.665 245.215,93.401 243.850,93.282 243.149 C 92.834 240.520,91.676 240.075,84.483 239.766 C 75.008 239.360,68.545 238.796,66.341 238.185 C 65.264 237.886,63.063 237.525,61.448 237.383 C 55.595 236.868,50.677 235.945,48.749 235.000 C 47.684 234.478,46.275 234.048,45.618 234.044 C 43.085 234.028,38.032 232.874,35.476 231.727 C 34.006 231.068,32.573 230.528,32.292 230.528 C 32.011 230.528,30.838 230.090,29.687 229.554 C 28.535 229.018,27.222 228.577,26.768 228.575 C 26.314 228.573,24.760 227.955,23.315 227.202 C 20.247 225.602,19.228 225.507,18.098 226.712 M24.070 228.980 C 24.932 229.581,26.429 230.193,27.397 230.340 C 28.366 230.486,30.446 231.203,32.019 231.932 C 33.593 232.661,36.059 233.451,37.499 233.688 C 41.678 234.377,45.468 235.293,47.221 236.038 C 48.115 236.418,51.060 237.015,53.767 237.364 C 56.474 237.713,60.007 238.343,61.618 238.766 C 65.297 239.729,69.456 240.154,80.822 240.726 C 85.773 240.975,90.101 241.326,90.439 241.505 C 91.693 242.170,92.914 247.086,94.955 259.687 C 95.303 261.840,95.937 264.834,96.364 266.341 C 100.022 279.267,99.821 279.695,90.257 279.312 C 78.143 278.827,72.223 278.361,70.646 277.767 C 69.785 277.442,66.086 276.871,62.427 276.498 C 55.074 275.747,51.345 275.049,41.487 272.580 C 40.303 272.284,36.869 271.146,33.855 270.051 C 30.841 268.956,27.596 267.804,26.643 267.492 C 25.690 267.179,24.633 266.681,24.295 266.384 C 23.956 266.087,22.975 265.477,22.114 265.028 C 20.342 264.103,18.275 262.294,17.645 261.117 C 17.043 259.992,17.060 230.790,17.663 229.622 C 18.992 227.049,21.016 226.846,24.070 228.980 M241.997 242.253 C 239.770 243.205,239.727 243.599,239.712 263.198 C 239.695 284.575,239.639 284.250,243.376 284.464 C 244.882 284.550,245.807 284.378,246.714 283.843 C 247.404 283.436,248.426 282.988,248.985 282.848 C 249.544 282.707,250.856 281.886,251.902 281.022 C 252.947 280.159,253.981 279.452,254.200 279.452 C 254.833 279.452,257.902 275.690,258.567 274.099 C 258.899 273.304,259.590 272.104,260.102 271.433 C 262.357 268.476,262.209 258.057,259.874 255.382 C 259.499 254.951,258.923 254.070,258.596 253.425 C 258.268 252.779,257.543 251.824,256.984 251.302 C 256.426 250.780,255.969 250.151,255.969 249.904 C 255.969 246.781,245.200 240.884,241.997 242.253 M247.879 244.850 C 256.738 249.289,263.046 262.399,259.579 269.166 C 259.162 269.980,258.435 271.504,257.964 272.553 C 256.014 276.888,246.774 283.918,244.031 283.152 C 243.816 283.092,243.169 282.940,242.594 282.813 C 240.916 282.445,240.800 281.215,240.761 263.405 C 240.723 245.569,240.819 244.538,242.586 243.892 C 244.308 243.262,244.936 243.375,247.879 244.850 M17.914 283.243 C 16.646 283.575,16.395 286.230,16.241 300.912 C 16.050 319.056,16.282 320.316,20.051 321.543 C 21.185 321.912,22.378 322.443,22.701 322.723 C 23.023 323.002,24.162 323.528,25.231 323.890 C 26.299 324.253,27.735 324.978,28.421 325.502 C 29.208 326.102,30.804 326.674,32.741 327.051 C 34.430 327.379,36.619 328.071,37.605 328.587 C 39.072 329.356,43.987 330.300,46.673 330.329 C 46.835 330.331,47.326 330.691,47.764 331.130 C 48.819 332.185,50.997 332.582,58.481 333.083 C 62.759 333.369,65.447 333.748,67.060 334.291 C 73.550 336.477,121.209 337.343,129.120 335.418 C 134.610 334.082,135.430 330.572,131.095 326.961 C 129.334 325.495,128.200 324.202,127.803 323.210 C 127.470 322.377,126.939 321.597,126.623 321.475 C 126.307 321.354,125.250 320.044,124.275 318.564 C 123.300 317.084,121.958 315.472,121.291 314.982 C 120.625 314.491,119.813 313.562,119.487 312.916 C 119.160 312.270,118.494 311.301,118.006 310.763 C 117.519 310.225,116.295 308.200,115.288 306.262 C 114.280 304.325,112.943 302.096,112.316 301.309 C 111.690 300.522,110.878 299.251,110.513 298.485 C 109.274 295.888,108.441 295.735,97.074 296.020 C 85.986 296.299,72.440 295.733,70.850 294.925 C 70.307 294.649,68.014 294.212,65.753 293.954 C 59.196 293.205,53.895 292.314,52.838 291.785 C 51.811 291.271,45.469 290.017,43.901 290.019 C 43.399 290.019,41.814 289.510,40.379 288.888 C 38.943 288.265,36.272 287.441,34.442 287.056 C 32.613 286.672,30.499 285.964,29.746 285.483 C 27.062 283.770,20.582 282.544,17.914 283.243 M24.538 284.982 C 25.422 285.736,26.588 286.157,31.507 287.494 C 33.659 288.079,36.301 288.864,37.378 289.239 C 39.409 289.946,44.549 291.194,45.431 291.194 C 45.709 291.194,46.653 291.524,47.528 291.928 C 48.403 292.332,50.705 292.875,52.642 293.134 C 54.579 293.394,58.718 294.102,61.840 294.708 C 71.738 296.629,73.521 296.772,90.841 297.021 C 109.644 297.291,108.037 296.982,110.230 300.748 C 110.994 302.059,111.938 303.483,112.329 303.914 C 112.721 304.344,113.790 306.150,114.706 307.926 C 115.621 309.702,116.501 311.155,116.661 311.155 C 116.820 311.155,117.426 311.965,118.007 312.956 C 118.587 313.946,119.881 315.667,120.881 316.780 C 121.882 317.892,123.757 320.201,125.049 321.911 C 126.341 323.621,128.588 326.171,130.042 327.578 C 133.714 331.130,133.432 331.989,127.996 333.801 C 120.895 336.168,81.548 335.951,69.899 333.480 C 68.842 333.256,65.231 332.808,61.875 332.483 C 56.161 331.931,51.369 331.012,47.442 329.713 C 46.520 329.408,45.199 329.155,44.507 329.150 C 43.815 329.146,42.016 328.692,40.509 328.142 C 39.002 327.593,36.360 326.815,34.638 326.415 C 32.916 326.015,30.362 325.063,28.963 324.301 C 27.564 323.538,26.145 322.910,25.811 322.905 C 25.477 322.900,24.508 322.391,23.658 321.774 C 22.809 321.157,21.409 320.495,20.548 320.301 C 17.339 319.582,17.221 318.910,17.221 301.340 C 17.221 283.291,17.062 283.948,21.370 284.222 C 22.815 284.314,24.122 284.628,24.538 284.982 " stroke="current" fill="current" fill-rule="evenodd"></path></g></svg>