<svg width="25" height="21" viewBox="0 0 25 21" fill="current" xmlns="http://www.w3.org/2000/svg">
<path fill-rule="evenodd" clip-rule="evenodd" d="M8.75003 10.5C11.1625 10.5 13.125 8.145 13.125 5.25C13.125 2.355 11.1625 0 8.75003 0C6.33753 0 4.37503 2.355 4.37503 5.25C4.37503 8.145 6.33753 10.5 8.75003 10.5ZM0 18.375C0 14.88 5.825 13.125 8.75 13.125C11.675 13.125 17.5 14.88 17.5 18.375V21H0V18.375ZM8.75005 16.125C6.51254 16.125 3.97504 17.13 2.92504 18H14.575C13.525 17.13 10.9875 16.125 8.75005 16.125ZM10.625 5.25C10.625 4.005 9.78751 3 8.75001 3C7.71251 3 6.87501 4.005 6.87501 5.25C6.87501 6.495 7.71251 7.5 8.75001 7.5C9.78751 7.5 10.625 6.495 10.625 5.25ZM17.55 13.215C19 14.475 20 16.155 20 18.375V21H25V18.375C25 15.345 20.625 13.62 17.55 13.215ZM20.625 5.25C20.625 8.145 18.6625 10.5 16.25 10.5C15.575 10.5 14.95 10.305 14.375 9.975C15.1625 8.64 15.625 7.005 15.625 5.25C15.625 3.495 15.1625 1.86 14.375 0.525C14.95 0.195 15.575 0 16.25 0C18.6625 0 20.625 2.355 20.625 5.25Z" fill="#current"/>
</svg>
