<svg width="25" height="23" viewBox="0 0 25 23" fill="current" xmlns="http://www.w3.org/2000/svg">
<path fill-rule="evenodd" clip-rule="evenodd" d="M23.75 2.3V13.8C23.75 15.0703 22.6307 16.1 21.25 16.1H13.75V17.7489L19.3931 20.8639L18.1069 22.8361L13.75 20.4311V23H11.25V20.4311L6.89312 22.8361L5.60688 20.8639L11.25 17.7489V16.1H3.75C2.36929 16.1 1.25 15.0703 1.25 13.8V2.3H0V0H25V2.3H23.75ZM3.75 2.3V13.8H21.25V2.3H3.75ZM7.5 11.5H10V6.9H7.5V11.5ZM13.75 11.5H11.25V4.6H13.75V11.5ZM15 11.5H17.5V8.05H15V11.5Z" fill="#current"/>
</svg>
