<svg width="25" height="23" viewBox="0 0 25 23" fill="current" xmlns="http://www.w3.org/2000/svg">
<path fill-rule="evenodd" clip-rule="evenodd" d="M7.49997 4.6H4.99997V3.45H2.5V6.9H22.5V3.45H20V4.6H17.5V3.45H7.49997V4.6ZM22.5 9.2H2.5V20.7H22.5V9.2ZM17.5 1.15H7.49997V0H4.99997V1.15H2.5C1.11929 1.15 0 2.17974 0 3.45V20.7C0 21.9703 1.11929 23 2.5 23H22.5C23.8807 23 25 21.9703 25 20.7V3.45C25 2.17974 23.8807 1.15 22.5 1.15H20V0H17.5V1.15ZM8.75 13.8H6.25V11.5H8.75V13.8ZM11.25 13.8H13.75V11.5H11.25V13.8ZM18.75 13.8H16.25V11.5H18.75V13.8ZM6.25 18.4H8.75V16.1H6.25V18.4ZM13.75 18.4H11.25V16.1H13.75V18.4Z" fill="#current"/>
</svg>
