<svg width="23" height="25" viewBox="0 0 23 25" fill="current" xmlns="http://www.w3.org/2000/svg">
<path d="M11.5 25C13.2246 25 14.6235 23.6011 14.6235 21.875H8.37647C8.37647 23.6011 9.77539 25 11.5 25ZM22.0171 17.6899C21.0737 16.6763 19.3086 15.1514 19.3086 10.1562C19.3086 6.3623 16.6484 3.3252 13.0615 2.58008V1.5625C13.0615 0.699707 12.3623 0 11.5 0C10.6377 0 9.93848 0.699707 9.93848 1.5625V2.58008C6.35157 3.3252 3.69141 6.3623 3.69141 10.1562C3.69141 15.1514 1.92627 16.6763 0.982913 17.6899C0.689945 18.0049 0.560062 18.3813 0.562503 18.75C0.567874 19.5508 1.19629 20.3125 2.12989 20.3125H20.8701C21.8037 20.3125 22.4326 19.5508 22.4375 18.75C22.4399 18.3813 22.3101 18.0044 22.0171 17.6899Z" fill="current"/>
</svg>
