<svg width="25" height="23" viewBox="0 0 25 23" fill="current" xmlns="http://www.w3.org/2000/svg">
<path fill-rule="evenodd" clip-rule="evenodd" d="M0 20.7C0 21.9703 1.11929 23 2.5 23H19.2678L25 17.7263V2.3C25 1.02974 23.8807 0 22.5 0H2.5C1.11929 0 0 1.02974 0 2.3V20.7ZM2.5 2.3H22.5V14.95H18.75C17.3693 14.95 16.25 15.9797 16.25 17.25V20.7H2.5V2.3ZM18.75 17.25H21.9822L18.75 20.2237V17.25ZM6.25 14.95V17.25H13.75V14.95H6.25ZM6.25 12.65V10.35H18.75V12.65H6.25ZM6.25 5.75V8.05H18.75V5.75H6.25Z" fill="#current"/>
</svg>
